<svg width="284" height="122" viewBox="0 0 284 122" fill="none" xmlns="http://www.w3.org/2000/svg">
<path d="M97.1865 8.69312C102.307 8.69312 107.055 11.9018 107.055 20.4114V21.8929C107.055 30.4025 102.307 33.6112 97.1865 33.6112H94.9678C94.1464 33.6112 93.7356 34.022 93.7356 34.8434V50.6304C93.7356 51.5554 93.3671 51.8626 92.5035 51.8626H89.7898C88.8033 51.8626 88.5576 51.5554 88.5576 50.6304V9.92529C88.5576 9.00026 88.8648 8.69312 89.7898 8.69312H97.1901H97.1865ZM94.9678 28.8018H97.1865C99.9001 28.8018 101.873 27.1974 101.873 22.1422V20.1693C101.873 15.1105 99.9001 13.5098 97.1865 13.5098H94.9678C94.1464 13.5098 93.7356 13.9205 93.7356 14.742V27.5118C93.7356 28.3742 94.1464 28.8054 94.9678 28.8054V28.8018Z" fill="#4BB066"/>
<mask id="mask0_3947_1291042" style="mask-type:luminance" maskUnits="userSpaceOnUse" x="88" y="8" width="20" height="44">
<path d="M97.1865 8.69312C102.307 8.69312 107.055 11.9018 107.055 20.4114V21.8929C107.055 30.4025 102.307 33.6112 97.1865 33.6112H94.9678C94.1464 33.6112 93.7356 34.022 93.7356 34.8434V50.6304C93.7356 51.5554 93.3671 51.8626 92.5035 51.8626H89.7898C88.8033 51.8626 88.5576 51.5554 88.5576 50.6304V9.92529C88.5576 9.00026 88.8648 8.69312 89.7898 8.69312H97.1901H97.1865ZM94.9678 28.8018H97.1865C99.9001 28.8018 101.873 27.1974 101.873 22.1422V20.1693C101.873 15.1105 99.9001 13.5098 97.1865 13.5098H94.9678C94.1464 13.5098 93.7356 13.9205 93.7356 14.742V27.5118C93.7356 28.3742 94.1464 28.8054 94.9678 28.8054V28.8018Z" fill="white"/>
</mask>
<g mask="url(#mask0_3947_1291042)">
<path d="M97.9272 26.8469L93.732 26.7096V35.4505L105.4 35.3349L108.999 29.2932L107.546 25.6943L100.742 24.9102L99.0582 26.4784L97.9272 26.8469Z" fill="url(#paint0_linear_3947_1291042)" fill-opacity="0.7"/>
</g>
<path d="M111.705 50.6303V9.92517C111.705 9.00013 112.012 8.69299 112.937 8.69299H125.953C126.878 8.69299 127.185 9.00013 127.185 9.92517V12.2703C127.185 13.1953 126.878 13.5024 125.953 13.5024H118.119C117.298 13.5024 116.887 13.9132 116.887 14.7346V25.4665C116.887 26.2879 117.298 26.6986 118.119 26.6986H125.953C126.878 26.6986 127.185 27.0058 127.185 27.9308V30.2759C127.185 31.201 126.878 31.5081 125.953 31.5081H118.119C117.298 31.5081 116.887 31.9188 116.887 32.7403V45.8172C116.887 46.6387 117.298 47.0494 118.119 47.0494H125.953C126.878 47.0494 127.185 47.3565 127.185 48.2816V50.6267C127.185 51.5517 126.878 51.8589 125.953 51.8589H112.937C112.012 51.8589 111.705 51.5517 111.705 50.6267V50.6303Z" fill="#4BB066"/>
<mask id="mask1_3947_1291042" style="mask-type:luminance" maskUnits="userSpaceOnUse" x="111" y="8" width="17" height="44">
<path d="M111.705 50.6303V9.92517C111.705 9.00013 112.012 8.69299 112.937 8.69299H125.953C126.878 8.69299 127.185 9.00013 127.185 9.92517V12.2703C127.185 13.1953 126.878 13.5024 125.953 13.5024H118.119C117.298 13.5024 116.887 13.9132 116.887 14.7346V25.4665C116.887 26.2879 117.298 26.6986 118.119 26.6986H125.953C126.878 26.6986 127.185 27.0058 127.185 27.9308V30.2759C127.185 31.201 126.878 31.5081 125.953 31.5081H118.119C117.298 31.5081 116.887 31.9188 116.887 32.7403V45.8172C116.887 46.6387 117.298 47.0494 118.119 47.0494H125.953C126.878 47.0494 127.185 47.3565 127.185 48.2816V50.6267C127.185 51.5517 126.878 51.8589 125.953 51.8589H112.937C112.012 51.8589 111.705 51.5517 111.705 50.6267V50.6303Z" fill="white"/>
</mask>
<g mask="url(#mask1_3947_1291042)">
<path d="M121.454 45.0694L116.883 45.3115L116.912 52.578L128.927 53.5573L132.526 47.5156L131.073 43.9167L124.269 43.1326L122.585 44.7008L121.454 45.0694Z" fill="url(#paint1_linear_3947_1291042)" fill-opacity="0.7"/>
</g>
<path d="M141.086 8.69299C146.206 8.69299 150.954 11.9017 150.954 20.4113V22.0771C150.954 27.0744 149.288 30.2795 146.882 32.0068C146.882 32.0682 146.943 32.1296 150.643 50.5725C150.889 51.5589 150.398 51.8661 149.903 51.8661H147.005C146.202 51.8661 145.834 51.8661 145.646 50.941L142.314 34.3482C142.191 33.7918 141.819 33.7918 141.574 33.7918H138.86C138.038 33.7918 137.628 34.2025 137.628 35.024V50.6267C137.628 51.5517 137.259 51.8589 136.396 51.8589H133.682C132.695 51.8589 132.45 51.5517 132.45 50.6267V9.92517C132.45 9.00013 132.757 8.69299 133.682 8.69299H141.082H141.086ZM138.867 28.9859H141.086C143.799 28.9859 145.772 27.3816 145.772 22.3264V20.1692C145.772 15.1104 143.799 13.5097 141.086 13.5097H138.867C138.046 13.5097 137.635 13.9204 137.635 14.7419V27.6923C137.635 28.5547 138.046 28.9859 138.867 28.9859Z" fill="#4BB066"/>
<mask id="mask2_3947_1291042" style="mask-type:luminance" maskUnits="userSpaceOnUse" x="132" y="8" width="19" height="44">
<path d="M141.086 8.69299C146.206 8.69299 150.954 11.9017 150.954 20.4113V22.0771C150.954 27.0744 149.288 30.2795 146.882 32.0068C146.882 32.0682 146.943 32.1296 150.643 50.5725C150.889 51.5589 150.398 51.8661 149.903 51.8661H147.005C146.202 51.8661 145.834 51.8661 145.646 50.941L142.314 34.3482C142.191 33.7918 141.819 33.7918 141.574 33.7918H138.86C138.038 33.7918 137.628 34.2025 137.628 35.024V50.6267C137.628 51.5517 137.259 51.8589 136.396 51.8589H133.682C132.695 51.8589 132.45 51.5517 132.45 50.6267V9.92517C132.45 9.00013 132.757 8.69299 133.682 8.69299H141.082H141.086ZM138.867 28.9859H141.086C143.799 28.9859 145.772 27.3816 145.772 22.3264V20.1692C145.772 15.1104 143.799 13.5097 141.086 13.5097H138.867C138.046 13.5097 137.635 13.9204 137.635 14.7419V27.6923C137.635 28.5547 138.046 28.9859 138.867 28.9859Z" fill="white"/>
</mask>
<g mask="url(#mask2_3947_1291042)">
<path d="M150.6 35.1866L146.885 32.0068C145.541 33.1053 143.868 33.7232 142.134 33.7738L141.274 33.7955L144.472 50.9195L146.072 51.8662L151.485 52.1516L153.509 36.9861L151.395 36.0755L150.604 35.1903L150.6 35.1866Z" fill="url(#paint2_linear_3947_1291042)" fill-opacity="0.7"/>
</g>
<path d="M156.504 50.6303V9.92517C156.504 9.00013 156.811 8.69299 157.736 8.69299H170.752C171.677 8.69299 171.984 9.00013 171.984 9.92517V12.2703C171.984 13.1953 171.677 13.5024 170.752 13.5024H162.918C162.097 13.5024 161.686 13.9132 161.686 14.7346V25.4665C161.686 26.2879 162.097 26.6986 162.918 26.6986H168.84C169.765 26.6986 170.073 27.0058 170.073 27.9308V30.2759C170.073 31.201 169.765 31.5081 168.84 31.5081H162.918C162.097 31.5081 161.686 31.9188 161.686 32.7403V50.6267C161.686 51.5517 161.379 51.8589 160.454 51.8589H157.74C156.815 51.8589 156.508 51.5517 156.508 50.6267L156.504 50.6303Z" fill="#4BB066"/>
<mask id="mask3_3947_1291042" style="mask-type:luminance" maskUnits="userSpaceOnUse" x="156" y="8" width="16" height="44">
<path d="M156.504 50.6303V9.92517C156.504 9.00013 156.811 8.69299 157.736 8.69299H170.752C171.677 8.69299 171.984 9.00013 171.984 9.92517V12.2703C171.984 13.1953 171.677 13.5024 170.752 13.5024H162.918C162.097 13.5024 161.686 13.9132 161.686 14.7346V25.4665C161.686 26.2879 162.097 26.6986 162.918 26.6986H168.84C169.765 26.6986 170.073 27.0058 170.073 27.9308V30.2759C170.073 31.201 169.765 31.5081 168.84 31.5081H162.918C162.097 31.5081 161.686 31.9188 161.686 32.7403V50.6267C161.686 51.5517 161.379 51.8589 160.454 51.8589H157.74C156.815 51.8589 156.508 51.5517 156.508 50.6267L156.504 50.6303Z" fill="white"/>
</mask>
<g mask="url(#mask3_3947_1291042)">
<path d="M166.228 25.1377L161.686 25.163V32.6464L173.701 33.6256L177.299 27.584L175.843 23.985L169.039 23.2009L167.359 24.7691L166.228 25.1377Z" fill="url(#paint3_linear_3947_1291042)" fill-opacity="0.7"/>
</g>
<path d="M207.338 8.69299C212.458 8.69299 217.206 11.9017 217.206 20.4113V22.0771C217.206 27.0744 215.54 30.2795 213.137 32.0068C213.137 32.0682 213.199 32.1296 216.899 50.5725C217.145 51.5589 216.653 51.8661 216.158 51.8661H213.26C212.458 51.8661 212.089 51.8661 211.905 50.941L208.574 34.3482C208.451 33.7918 208.079 33.7918 207.833 33.7918H205.119C204.298 33.7918 203.887 34.2025 203.887 35.024V50.6267C203.887 51.5517 203.518 51.8589 202.655 51.8589H199.941C198.955 51.8589 198.709 51.5517 198.709 50.6267V9.92517C198.709 9.00013 199.016 8.69299 199.941 8.69299H207.341H207.338ZM205.119 28.9859H207.338C210.051 28.9859 212.024 27.3816 212.024 22.3264V20.1692C212.024 15.1104 210.051 13.5097 207.338 13.5097H205.119C204.298 13.5097 203.887 13.9204 203.887 14.7419V27.6923C203.887 28.5547 204.298 28.9859 205.119 28.9859Z" fill="#4BB066"/>
<mask id="mask4_3947_1291042" style="mask-type:luminance" maskUnits="userSpaceOnUse" x="198" y="8" width="20" height="44">
<path d="M207.338 8.69299C212.458 8.69299 217.206 11.9017 217.206 20.4113V22.0771C217.206 27.0744 215.54 30.2795 213.137 32.0068C213.137 32.0682 213.199 32.1296 216.899 50.5725C217.145 51.5589 216.653 51.8661 216.158 51.8661H213.26C212.458 51.8661 212.089 51.8661 211.905 50.941L208.574 34.3482C208.451 33.7918 208.079 33.7918 207.833 33.7918H205.119C204.298 33.7918 203.887 34.2025 203.887 35.024V50.6267C203.887 51.5517 203.518 51.8589 202.655 51.8589H199.941C198.955 51.8589 198.709 51.5517 198.709 50.6267V9.92517C198.709 9.00013 199.016 8.69299 199.941 8.69299H207.341H207.338ZM205.119 28.9859H207.338C210.051 28.9859 212.024 27.3816 212.024 22.3264V20.1692C212.024 15.1104 210.051 13.5097 207.338 13.5097H205.119C204.298 13.5097 203.887 13.9204 203.887 14.7419V27.6923C203.887 28.5547 204.298 28.9859 205.119 28.9859Z" fill="white"/>
</mask>
<g mask="url(#mask4_3947_1291042)">
<path d="M217.307 34.9482L213.134 32.0033C211.79 33.1018 209.564 33.745 207.829 33.7919H206.879L211.175 50.681L212.776 51.6278L218.189 51.9132L220.212 36.7477L218.099 35.8371L217.307 34.9518V34.9482Z" fill="url(#paint4_linear_3947_1291042)" fill-opacity="0.7"/>
</g>
<path d="M234.193 51.0025L228.025 29.0474C227.963 28.7402 227.656 28.8017 227.656 29.0474V50.6339C227.656 51.5589 227.349 51.8661 226.424 51.8661H223.71C222.785 51.8661 222.478 51.5589 222.478 50.6339V9.92517C222.478 9.00013 222.785 8.69299 223.71 8.69299H225.867C226.792 8.69299 226.854 8.87728 227.038 9.43374L235.858 40.8885C235.92 41.1957 236.288 41.1957 236.354 40.8885L245.174 9.43374C245.358 8.87728 245.481 8.69299 246.345 8.69299H248.502C249.427 8.69299 249.734 9.00013 249.734 9.92517V50.6303C249.734 51.5553 249.427 51.8625 248.502 51.8625H245.788C244.863 51.8625 244.556 51.5553 244.556 50.6303V29.0438C244.556 28.798 244.249 28.7366 244.187 29.0438L238.019 50.9989C237.774 51.8625 237.279 51.8625 236.661 51.8625H235.551C234.933 51.8625 234.442 51.8625 234.196 50.9989L234.193 51.0025Z" fill="#4BB066"/>
<mask id="mask5_3947_1291042" style="mask-type:luminance" maskUnits="userSpaceOnUse" x="222" y="8" width="28" height="44">
<path d="M234.193 51.0025L228.025 29.0474C227.963 28.7402 227.656 28.8017 227.656 29.0474V50.6339C227.656 51.5589 227.349 51.8661 226.424 51.8661H223.71C222.785 51.8661 222.478 51.5589 222.478 50.6339V9.92517C222.478 9.00013 222.785 8.69299 223.71 8.69299H225.867C226.792 8.69299 226.854 8.87728 227.038 9.43374L235.858 40.8885C235.92 41.1957 236.288 41.1957 236.354 40.8885L245.174 9.43374C245.358 8.87728 245.481 8.69299 246.345 8.69299H248.502C249.427 8.69299 249.734 9.00013 249.734 9.92517V50.6303C249.734 51.5553 249.427 51.8625 248.502 51.8625H245.788C244.863 51.8625 244.556 51.5553 244.556 50.6303V29.0438C244.556 28.798 244.249 28.7366 244.187 29.0438L238.019 50.9989C237.774 51.8625 237.279 51.8625 236.661 51.8625H235.551C234.933 51.8625 234.442 51.8625 234.196 50.9989L234.193 51.0025Z" fill="white"/>
</mask>
<g mask="url(#mask5_3947_1291042)">
<path d="M257.416 27.0169L254.475 10.5578L251.244 7.65259C249.9 8.75107 250.627 8.61376 248.892 8.66435L244.224 29.0332L251.284 42.7533L252.885 43.7L258.298 43.9855L260.321 28.82L258.207 27.9094L257.416 27.0241V27.0169Z" fill="url(#paint5_linear_3947_1291042)" fill-opacity="0.7"/>
<path d="M236.104 26.3772L232.838 8.35346L228.921 6.47449C227.938 7.9054 228.599 7.57297 226.948 8.10775L227.652 29.0981L232.975 49.6873L233.774 52.5781L239.801 52.4552L236.101 40.278V26.3772H236.104Z" fill="url(#paint6_linear_3947_1291042)" fill-opacity="0.7"/>
</g>
<path d="M190.243 51.8589C189.441 51.8589 189.072 51.8589 188.884 50.9339L188.205 47.1073C188.041 46.2834 187.588 45.8715 186.846 45.8715H179.626C178.846 45.8715 178.373 46.2834 178.206 47.1073L177.527 50.9339C177.343 51.8589 176.971 51.8589 176.168 51.8589H173.455C172.837 51.8589 172.219 51.8589 172.407 50.811L180.183 9.76984C180.367 8.84481 180.552 8.66052 181.542 8.66052H184.873C185.86 8.66052 186.044 8.84481 186.232 9.76984L194.008 50.811C194.192 51.8589 193.574 51.8589 192.96 51.8589H190.246H190.243ZM179.442 39.8262C179.319 40.6501 179.669 41.062 180.49 41.062H185.921C186.745 41.062 187.094 40.6501 186.969 39.8262L183.453 18.9046C183.392 18.5974 183.019 18.5974 182.958 18.9046L179.439 39.8262H179.442Z" fill="#4BB066"/>
<mask id="mask6_3947_1291042" style="mask-type:luminance" maskUnits="userSpaceOnUse" x="172" y="8" width="23" height="44">
<path d="M190.243 51.8589C189.441 51.8589 189.072 51.8589 188.884 50.9339L188.205 47.1073C188.041 46.2834 187.588 45.8715 186.846 45.8715H179.626C178.846 45.8715 178.373 46.2834 178.206 47.1073L177.527 50.9339C177.343 51.8589 176.971 51.8589 176.168 51.8589H173.455C172.837 51.8589 172.219 51.8589 172.407 50.811L180.183 9.76984C180.367 8.84481 180.552 8.66052 181.542 8.66052H184.873C185.86 8.66052 186.044 8.84481 186.232 9.76984L194.008 50.811C194.192 51.8589 193.574 51.8589 192.96 51.8589H190.246H190.243ZM179.442 39.8262C179.319 40.6501 179.669 41.062 180.49 41.062H185.921C186.745 41.062 187.094 40.6501 186.969 39.8262L183.453 18.9046C183.392 18.5974 183.019 18.5974 182.958 18.9046L179.439 39.8262H179.442Z" fill="white"/>
</mask>
<g mask="url(#mask6_3947_1291042)">
<path d="M183.742 39.2119L179.395 40.1406L178.13 47.5445L191.215 47.6998L194.814 41.6582L193.361 38.0593L186.557 37.2751L184.873 38.8434L183.742 39.2119Z" fill="url(#paint7_linear_3947_1291042)" fill-opacity="0.7"/>
</g>
<path d="M103.076 57.6475H89.4067C88.9334 57.6475 88.5504 58.0306 88.5504 58.5039V100.264C88.5504 100.738 88.9334 101.121 89.4067 101.121H103.076C103.55 101.121 103.933 100.738 103.933 100.264V97.0121C103.933 96.5387 103.55 96.1557 103.076 96.1557L93.62 96.1485L93.6272 81.8863H101.645C102.119 81.8863 102.502 81.5033 102.502 81.0299V77.7345C102.502 77.2612 102.119 76.8781 101.645 76.8781L93.62 76.8709L93.6272 62.6088H103.073C103.546 62.6088 103.929 62.2257 103.929 61.7524V58.5003C103.929 58.0269 103.546 57.6439 103.073 57.6439L103.076 57.6475Z" fill="url(#paint8_linear_3947_1291042)"/>
<mask id="mask7_3947_1291042" style="mask-type:luminance" maskUnits="userSpaceOnUse" x="88" y="57" width="16" height="45">
<path d="M103.076 57.6475H89.4067C88.9334 57.6475 88.5504 58.0306 88.5504 58.5039V100.264C88.5504 100.738 88.9334 101.121 89.4067 101.121H103.076C103.55 101.121 103.933 100.738 103.933 100.264V97.0121C103.933 96.5387 103.55 96.1557 103.076 96.1557L93.62 96.1485L93.6272 81.8863H101.645C102.119 81.8863 102.502 81.5033 102.502 81.0299V77.7345C102.502 77.2612 102.119 76.8781 101.645 76.8781L93.62 76.8709L93.6272 62.6088H103.073C103.546 62.6088 103.929 62.2257 103.929 61.7524V58.5003C103.929 58.0269 103.546 57.6439 103.073 57.6439L103.076 57.6475Z" fill="white"/>
</mask>
<g mask="url(#mask7_3947_1291042)">
<path d="M98.4113 76.1085L93.6235 76.3506L93.6308 83.6172L105.884 84.5965L109.483 78.5548L108.03 74.9559L101.226 74.1718L99.5423 75.74L98.4113 76.1085Z" fill="url(#paint9_linear_3947_1291042)"/>
</g>
<path d="M125.436 58.0052C125.277 57.7812 125.017 57.6511 124.742 57.6511H121.494C121.125 57.6511 120.8 57.886 120.684 58.2329L116.132 71.7615L111.655 58.2365C111.539 57.886 111.214 57.6511 110.842 57.6511H107.593C107.318 57.6511 107.058 57.7848 106.899 58.0052C106.74 58.2257 106.693 58.5147 106.78 58.7749L113.609 79.3894L106.78 99.9967C106.693 100.257 106.737 100.546 106.899 100.766C107.062 100.987 107.318 101.121 107.593 101.121H110.842C111.21 101.121 111.539 100.886 111.655 100.535L116.146 87.0101L120.681 100.539C120.796 100.889 121.125 101.124 121.49 101.124H124.739C125.013 101.124 125.273 100.99 125.432 100.77C125.591 100.546 125.635 100.261 125.548 100L118.657 79.3894L125.548 58.7821C125.635 58.522 125.591 58.2329 125.432 58.0125L125.436 58.0052Z" fill="url(#paint10_linear_3947_1291042)"/>
<mask id="mask8_3947_1291042" style="mask-type:luminance" maskUnits="userSpaceOnUse" x="106" y="57" width="20" height="45">
<path d="M125.436 58.0052C125.277 57.7812 125.017 57.6511 124.742 57.6511H121.494C121.125 57.6511 120.8 57.886 120.684 58.2329L116.132 71.7615L111.655 58.2365C111.539 57.886 111.214 57.6511 110.842 57.6511H107.593C107.318 57.6511 107.058 57.7848 106.899 58.0052C106.74 58.2257 106.693 58.5147 106.78 58.7749L113.609 79.3894L106.78 99.9967C106.693 100.257 106.737 100.546 106.899 100.766C107.062 100.987 107.318 101.121 107.593 101.121H110.842C111.21 101.121 111.539 100.886 111.655 100.535L116.146 87.0101L120.681 100.539C120.796 100.889 121.125 101.124 121.49 101.124H124.739C125.013 101.124 125.273 100.99 125.432 100.77C125.591 100.546 125.635 100.261 125.548 100L118.657 79.3894L125.548 58.7821C125.635 58.522 125.591 58.2329 125.432 58.0125L125.436 58.0052Z" fill="white"/>
</mask>
<g mask="url(#mask8_3947_1291042)">
<path d="M123.015 84.4845L118.661 79.3823L116.146 87.0066L119.192 102.891L126.697 102.523L132.218 87.5053L126.386 83.9172L124.197 84.6254L123.015 84.4845Z" fill="url(#paint11_linear_3947_1291042)"/>
</g>
<path d="M138.704 57.6476H130.816C130.343 57.6476 129.96 58.0306 129.96 58.504V100.264C129.96 100.738 130.343 101.121 130.816 101.121H134.177C134.65 101.121 135.033 100.738 135.033 100.264L135.04 81.8864H136.797C138.621 81.8864 139.962 81.731 140.891 81.4094C144.677 80.1808 146.596 77.3949 146.596 73.1238V66.3884C146.596 60.6034 143.94 57.662 138.701 57.6476H138.704ZM139.326 76.6722C138.892 76.8095 138.181 76.8818 137.209 76.8818L135.033 76.8746L135.04 62.6124H138.032C140.417 62.6124 141.53 63.8121 141.53 66.3921V73.1275C141.53 74.88 140.815 76.0399 139.33 76.6758L139.326 76.6722Z" fill="url(#paint12_linear_3947_1291042)"/>
<mask id="mask9_3947_1291042" style="mask-type:luminance" maskUnits="userSpaceOnUse" x="129" y="57" width="18" height="45">
<path d="M138.704 57.6476H130.816C130.343 57.6476 129.96 58.0306 129.96 58.504V100.264C129.96 100.738 130.343 101.121 130.816 101.121H134.177C134.65 101.121 135.033 100.738 135.033 100.264L135.04 81.8864H136.797C138.621 81.8864 139.962 81.731 140.891 81.4094C144.677 80.1808 146.596 77.3949 146.596 73.1238V66.3884C146.596 60.6034 143.94 57.662 138.701 57.6476H138.704ZM139.326 76.6722C138.892 76.8095 138.181 76.8818 137.209 76.8818L135.033 76.8746L135.04 62.6124H138.032C140.417 62.6124 141.53 63.8121 141.53 66.3921V73.1275C141.53 74.88 140.815 76.0399 139.33 76.6758L139.326 76.6722Z" fill="white"/>
</mask>
<g mask="url(#mask9_3947_1291042)">
<path d="M139.839 75.3858L135.033 76.8745L135.041 81.8863L147.312 83.8737L148.591 77.7345L148.898 58.0522L141.704 55.8408L138.567 69.1237L139.839 75.3858Z" fill="url(#paint13_linear_3947_1291042)"/>
</g>
<path d="M165.715 57.6475H152.045C151.572 57.6475 151.189 58.0306 151.189 58.5039V100.264C151.189 100.738 151.572 101.121 152.045 101.121H165.715C166.188 101.121 166.571 100.738 166.571 100.264V97.0121C166.571 96.5387 166.188 96.1557 165.715 96.1557L156.258 96.1485L156.266 81.8863H164.284C164.757 81.8863 165.14 81.5033 165.14 81.0299V77.7345C165.14 77.2612 164.757 76.8781 164.284 76.8781L156.258 76.8709L156.266 62.6088H165.711C166.185 62.6088 166.568 62.2257 166.568 61.7524V58.5003C166.568 58.0269 166.185 57.6439 165.711 57.6439L165.715 57.6475Z" fill="url(#paint14_linear_3947_1291042)"/>
<mask id="mask10_3947_1291042" style="mask-type:luminance" maskUnits="userSpaceOnUse" x="151" y="57" width="16" height="45">
<path d="M165.715 57.6475H152.045C151.572 57.6475 151.189 58.0306 151.189 58.5039V100.264C151.189 100.738 151.572 101.121 152.045 101.121H165.715C166.188 101.121 166.571 100.738 166.571 100.264V97.0121C166.571 96.5387 166.188 96.1557 165.715 96.1557L156.258 96.1485L156.266 81.8863H164.284C164.757 81.8863 165.14 81.5033 165.14 81.0299V77.7345C165.14 77.2612 164.757 76.8781 164.284 76.8781L156.258 76.8709L156.266 62.6088H165.711C166.185 62.6088 166.568 62.2257 166.568 61.7524V58.5003C166.568 58.0269 166.185 57.6439 165.711 57.6439L165.715 57.6475Z" fill="white"/>
</mask>
<g mask="url(#mask10_3947_1291042)">
<path d="M161.158 94.1756L156.259 96.1486L156.356 96.9977C156.638 99.4259 158.694 101.258 161.14 101.258H168.631L172.23 96.6183L170.777 93.0193L163.973 92.2352L162.289 93.8035L161.158 94.172V94.1756Z" fill="url(#paint15_linear_3947_1291042)"/>
</g>
<path d="M182.514 80.5277L182.524 80.5168C186.019 79.0967 187.793 76.6107 187.793 73.1274V66.392C187.793 60.6069 185.137 57.6656 179.897 57.6511H172.013C171.54 57.6511 171.157 58.0341 171.157 58.5075V100.268C171.157 100.741 171.54 101.124 172.013 101.124H175.373C175.847 101.124 176.23 100.741 176.23 100.268L176.237 81.3913L178.224 81.2865L183.926 100.51C184.035 100.871 184.371 101.121 184.747 101.121H188.494C188.772 101.121 189.032 100.987 189.191 100.759C189.35 100.535 189.394 100.242 189.3 99.9823L182.51 80.524L182.514 80.5277ZM176.237 62.6123H179.229C181.614 62.6123 182.727 63.812 182.727 66.392V73.1274C182.727 74.8799 182.011 76.0398 180.541 76.6685L180.523 76.6758C180.089 76.8131 179.377 76.8853 178.405 76.8853L176.23 76.8781L176.237 62.616V62.6123Z" fill="url(#paint16_linear_3947_1291042)"/>
<mask id="mask11_3947_1291042" style="mask-type:luminance" maskUnits="userSpaceOnUse" x="171" y="57" width="19" height="45">
<path d="M182.514 80.5277L182.524 80.5168C186.019 79.0967 187.793 76.6107 187.793 73.1274V66.392C187.793 60.6069 185.137 57.6656 179.897 57.6511H172.013C171.54 57.6511 171.157 58.0341 171.157 58.5075V100.268C171.157 100.741 171.54 101.124 172.013 101.124H175.373C175.847 101.124 176.23 100.741 176.23 100.268L176.237 81.3913L178.224 81.2865L183.926 100.51C184.035 100.871 184.371 101.121 184.747 101.121H188.494C188.772 101.121 189.032 100.987 189.191 100.759C189.35 100.535 189.394 100.242 189.3 99.9823L182.51 80.524L182.514 80.5277ZM176.237 62.6123H179.229C181.614 62.6123 182.727 63.812 182.727 66.392V73.1274C182.727 74.8799 182.011 76.0398 180.541 76.6685L180.523 76.6758C180.089 76.8131 179.377 76.8853 178.405 76.8853L176.23 76.8781L176.237 62.616V62.6123Z" fill="white"/>
</mask>
<g mask="url(#mask11_3947_1291042)">
<path d="M182.514 80.5278L182.253 80.6182C181.057 81.0265 179.804 81.2505 178.542 81.2794L178.224 81.2866L178.149 83.2523C178.43 85.6806 179.713 101.558 182.156 101.558L190.275 101.374L194.019 82.8729L192.566 79.274L185.762 78.4899L184.078 80.0581L182.514 80.5278Z" fill="url(#paint17_linear_3947_1291042)"/>
</g>
<path d="M197.354 57.6476H193.997C193.524 57.6476 193.141 58.031 193.141 58.504V100.264C193.141 100.737 193.524 101.121 193.997 101.121H197.354C197.827 101.121 198.21 100.737 198.21 100.264V58.504C198.21 58.031 197.827 57.6476 197.354 57.6476Z" fill="url(#paint18_linear_3947_1291042)"/>
<mask id="mask12_3947_1291042" style="mask-type:luminance" maskUnits="userSpaceOnUse" x="193" y="57" width="6" height="45">
<path d="M197.354 57.6476H193.997C193.524 57.6476 193.141 58.031 193.141 58.504V100.264C193.141 100.737 193.524 101.121 193.997 101.121H197.354C197.827 101.121 198.21 100.737 198.21 100.264V58.504C198.21 58.031 197.827 57.6476 197.354 57.6476Z" fill="white"/>
</mask>
<g mask="url(#mask12_3947_1291042)">
<path d="M191.583 101.782L193.112 67.9424L193.209 68.7915C193.491 71.2198 195.872 73.0518 198.319 73.0518H205.484L209.083 68.4121L207.631 64.8132L200.826 64.0291L198.597 102.024L191.587 101.778L191.583 101.782Z" fill="url(#paint19_linear_3947_1291042)"/>
</g>
<path d="M218.518 57.6475H204.848C204.375 57.6475 203.992 58.0306 203.992 58.5039V100.264C203.992 100.738 204.375 101.121 204.848 101.121H218.518C218.987 101.121 219.374 100.738 219.374 100.264V97.0121C219.374 96.5387 218.991 96.1557 218.518 96.1557L209.061 96.1485L209.069 81.8863H217.087C217.56 81.8863 217.943 81.5033 217.943 81.0299V77.7345C217.943 77.2612 217.56 76.8781 217.087 76.8781L209.061 76.8709L209.069 62.6088H218.514C218.984 62.6088 219.37 62.2257 219.37 61.7524V58.5003C219.37 58.0269 218.987 57.6439 218.514 57.6439L218.518 57.6475Z" fill="url(#paint20_linear_3947_1291042)"/>
<mask id="mask13_3947_1291042" style="mask-type:luminance" maskUnits="userSpaceOnUse" x="203" y="57" width="17" height="45">
<path d="M218.518 57.6475H204.848C204.375 57.6475 203.992 58.0306 203.992 58.5039V100.264C203.992 100.738 204.375 101.121 204.848 101.121H218.518C218.987 101.121 219.374 100.738 219.374 100.264V97.0121C219.374 96.5387 218.991 96.1557 218.518 96.1557L209.061 96.1485L209.069 81.8863H217.087C217.56 81.8863 217.943 81.5033 217.943 81.0299V77.7345C217.943 77.2612 217.56 76.8781 217.087 76.8781L209.061 76.8709L209.069 62.6088H218.514C218.984 62.6088 219.37 62.2257 219.37 61.7524V58.5003C219.37 58.0269 218.987 57.6439 218.514 57.6439L218.518 57.6475Z" fill="white"/>
</mask>
<g mask="url(#mask13_3947_1291042)">
<path d="M213.994 64.5166L209.065 62.6087L209.195 61.6909C209.477 59.2627 211.529 57.5933 213.976 57.5933L221.47 57.4307L225.069 62.0703L223.616 65.6693L216.812 66.4534L215.128 64.8851L213.997 64.5166H213.994Z" fill="url(#paint21_linear_3947_1291042)"/>
</g>
<path d="M240.289 57.6764L237.405 57.727C236.942 57.7342 236.563 58.1173 236.563 58.5834L236.545 88.9758L229.311 58.3088C229.221 57.9221 228.877 57.6511 228.48 57.6511H224.812C224.339 57.6511 223.956 58.0341 223.956 58.5075V100.268C223.956 100.741 224.339 101.124 224.812 101.124H227.934C228.408 101.124 228.791 100.741 228.791 100.268L228.809 70.5835L235.804 100.463C235.895 100.853 236.238 101.124 236.635 101.124H240.299C240.773 101.124 241.156 100.741 241.156 100.268V58.5364C241.156 58.3052 241.065 58.0883 240.899 57.9257C240.733 57.7631 240.516 57.6836 240.285 57.68L240.289 57.6764Z" fill="url(#paint22_linear_3947_1291042)"/>
<mask id="mask14_3947_1291042" style="mask-type:luminance" maskUnits="userSpaceOnUse" x="223" y="57" width="19" height="45">
<path d="M240.289 57.6764L237.405 57.727C236.942 57.7342 236.563 58.1173 236.563 58.5834L236.545 88.9758L229.311 58.3088C229.221 57.9221 228.877 57.6511 228.48 57.6511H224.812C224.339 57.6511 223.956 58.0341 223.956 58.5075V100.268C223.956 100.741 224.339 101.124 224.812 101.124H227.934C228.408 101.124 228.791 100.741 228.791 100.268L228.809 70.5835L235.804 100.463C235.895 100.853 236.238 101.124 236.635 101.124H240.299C240.773 101.124 241.156 100.741 241.156 100.268V58.5364C241.156 58.3052 241.065 58.0883 240.899 57.9257C240.733 57.7631 240.516 57.6836 240.285 57.68L240.289 57.6764Z" fill="white"/>
</mask>
<g mask="url(#mask14_3947_1291042)">
<path d="M233.221 94.2803L228.798 70.6775L228.809 70.5835C228.809 67.429 227.887 56.8851 229.315 58.3124L239.064 62.0884L243.891 65.4308L243.588 69.3008L242.822 103.267L236.487 104.065L233.228 94.2875L233.221 94.2803Z" fill="url(#paint23_linear_3947_1291042)"/>
</g>
<path d="M254.988 56.9321C249.29 56.9321 246.399 59.8662 246.399 65.6513V93.1169C246.399 98.9164 249.29 101.858 254.988 101.858C260.701 101.843 263.599 98.9019 263.599 93.1169V88.6326C263.599 88.1593 263.216 87.7762 262.742 87.7762H259.382C258.908 87.7762 258.525 88.1593 258.525 88.6326V93.1169C258.525 95.6643 257.402 96.8531 254.984 96.8531C252.567 96.8531 251.465 95.6679 251.465 93.1169V65.6513C251.465 63.1038 252.578 61.915 254.963 61.915H255.002C257.405 61.9295 258.522 63.1147 258.522 65.6513V70.1355C258.522 70.6089 258.905 70.9919 259.378 70.9919H262.739C263.212 70.9919 263.595 70.6089 263.595 70.1355V65.6513C263.595 59.8662 260.697 56.9321 254.984 56.9321H254.988Z" fill="url(#paint24_linear_3947_1291042)"/>
<mask id="mask15_3947_1291042" style="mask-type:luminance" maskUnits="userSpaceOnUse" x="246" y="56" width="18" height="46">
<path d="M254.988 56.9321C249.29 56.9321 246.399 59.8662 246.399 65.6513V93.1169C246.399 98.9164 249.29 101.858 254.988 101.858C260.701 101.843 263.599 98.9019 263.599 93.1169V88.6326C263.599 88.1593 263.216 87.7762 262.742 87.7762H259.382C258.908 87.7762 258.525 88.1593 258.525 88.6326V93.1169C258.525 95.6643 257.402 96.8531 254.984 96.8531C252.567 96.8531 251.465 95.6679 251.465 93.1169V65.6513C251.465 63.1038 252.578 61.915 254.963 61.915H255.002C257.405 61.9295 258.522 63.1147 258.522 65.6513V70.1355C258.522 70.6089 258.905 70.9919 259.378 70.9919H262.739C263.212 70.9919 263.595 70.6089 263.595 70.1355V65.6513C263.595 59.8662 260.697 56.9321 254.984 56.9321H254.988Z" fill="white"/>
</mask>
<g mask="url(#mask15_3947_1291042)">
<path d="M267.234 77.4276L251.468 66.5187L251.537 64.6361C251.819 62.2079 254.384 61.2539 256.827 61.2539C259.49 61.2539 261.98 62.5656 263.49 64.7589L265.264 67.3389L266.139 69.4889L271.31 44.2709L274.612 79.3824L267.23 77.424L267.234 77.4276Z" fill="url(#paint25_linear_3947_1291042)"/>
</g>
<path d="M273.698 62.6088H283.144C283.617 62.6088 284 62.2257 284 61.7524V58.5003C284 58.0269 283.617 57.6439 283.144 57.6439H269.474C269.001 57.6439 268.618 58.0269 268.618 58.5003V100.261C268.618 100.734 269.001 101.117 269.474 101.117H283.144C283.617 101.117 284 100.734 284 100.261V97.0085C284 96.5351 283.617 96.1521 283.144 96.1521L273.687 96.1449L273.695 81.8827H281.713C282.186 81.8827 282.569 81.4997 282.569 81.0263V77.7309C282.569 77.2575 282.186 76.8745 281.713 76.8745L273.687 76.8673V62.6124C273.687 62.6124 273.691 62.6051 273.695 62.6051L273.698 62.6088Z" fill="url(#paint26_linear_3947_1291042)"/>
<mask id="mask16_3947_1291042" style="mask-type:luminance" maskUnits="userSpaceOnUse" x="268" y="57" width="16" height="45">
<path d="M273.698 62.6088H283.144C283.617 62.6088 284 62.2257 284 61.7524V58.5003C284 58.0269 283.617 57.6439 283.144 57.6439H269.474C269.001 57.6439 268.618 58.0269 268.618 58.5003V100.261C268.618 100.734 269.001 101.117 269.474 101.117H283.144C283.617 101.117 284 100.734 284 100.261V97.0085C284 96.5351 283.617 96.1521 283.144 96.1521L273.687 96.1449L273.695 81.8827H281.713C282.186 81.8827 282.569 81.4997 282.569 81.0263V77.7309C282.569 77.2575 282.186 76.8745 281.713 76.8745L273.687 76.8673V62.6124C273.687 62.6124 273.691 62.6051 273.695 62.6051L273.698 62.6088Z" fill="white"/>
</mask>
<g mask="url(#mask16_3947_1291042)">
<path d="M275.704 71.9386L273.796 76.8673L272.878 76.7373C270.45 76.4554 268.78 74.403 268.78 71.9567L268.618 64.4625L273.257 60.8635L276.856 62.3161L277.64 69.1202L276.072 70.804L275.704 71.935V71.9386Z" fill="url(#paint27_linear_3947_1291042)"/>
</g>
<path d="M98.527 93.3227C98.1114 93.3118 97.6959 93.2902 97.2767 93.2902C77.0236 93.2902 59.4334 104.792 50.5408 121.681C50.9564 121.692 51.3719 121.713 51.7875 121.713C72.0407 121.713 89.6308 110.212 98.527 93.3227Z" fill="#4BB066"/>
<path d="M50.5011 121.677C45.5507 97.8539 24.9073 79.8735 0 79.2737C4.94677 103.101 25.5938 121.077 50.5011 121.677Z" fill="#4BB066"/>
<path d="M76.066 39.6925C69.0957 36.8271 61.2944 39.2733 57.0558 45.156L51.0323 41.9292C51.0323 41.9292 51.0395 41.9111 51.0467 41.9003C52.3295 38.7133 52.3114 35.3167 51.2418 32.3139L57.5111 29.3039C58.5735 30.8035 60.0477 32.0321 61.8617 32.78C66.9819 34.8867 72.8212 32.4006 74.9025 27.2262C76.9874 22.0554 74.5267 16.1547 69.4065 14.0481C65.728 12.5341 61.6846 13.4013 58.924 15.9235L54.9781 12.8557C55.1696 12.516 55.3503 12.1691 55.5021 11.7969C57.2654 7.41386 55.1841 2.41651 50.848 0.635093C46.5119 -1.14993 41.5651 0.956687 39.8018 5.33976C38.0384 9.72283 40.1198 14.7202 44.4559 16.5016C47.5453 17.7699 50.9347 17.0617 53.2726 14.9695L57.0378 18.2649C56.7884 18.6913 56.5572 19.1322 56.3693 19.6019C55.4659 21.8422 55.419 24.2199 56.0694 26.3662L49.9013 29.5713C48.474 27.3382 46.3818 25.5062 43.7621 24.4294C36.9761 21.6399 29.2361 24.9353 26.4719 31.79C23.7076 38.6482 26.9705 46.4677 33.7565 49.2608C35.0935 49.8101 36.4702 50.1208 37.8361 50.2184L38.183 53.9799C35.379 54.4533 32.8712 56.3323 31.7186 59.1869C29.9552 63.5627 32.0365 68.5565 36.369 70.3415C40.7015 72.1229 45.6447 70.0199 47.408 65.6404C49.1714 61.2646 47.09 56.2709 42.7576 54.4858C41.9915 54.1715 41.2038 53.9836 40.4197 53.9005L40.5281 50.1244C44.0186 49.6475 47.249 47.7757 49.4026 44.8525L55.2455 48.4044C55.2202 48.4695 55.1913 48.5273 55.1624 48.5923C52.3259 55.6385 54.7469 63.523 60.5753 67.8013L57.0378 74.5583C51.166 72.1699 44.4848 75.0281 42.0963 80.9541C39.7006 86.8982 42.5299 93.6733 48.4089 96.0943C54.2916 98.5117 60.9981 95.6571 63.3938 89.713C65.392 84.7518 63.7515 79.2088 59.7298 76.1085L63.6792 69.5863C63.7768 69.6297 63.8707 69.673 63.9683 69.7128C72.1744 73.0877 81.5331 69.1021 84.8719 60.8129C88.2107 52.5237 84.2685 43.0674 76.0624 39.6925H76.066Z" fill="#FFCC00"/>
<mask id="mask17_3947_1291042" style="mask-type:luminance" maskUnits="userSpaceOnUse" x="25" y="0" width="62" height="97">
<path d="M76.066 39.6925C69.0957 36.8271 61.2944 39.2733 57.0558 45.156L51.0323 41.9292C51.0323 41.9292 51.0395 41.9111 51.0467 41.9003C52.3295 38.7133 52.3114 35.3167 51.2418 32.3139L57.5111 29.3039C58.5735 30.8035 60.0477 32.0321 61.8617 32.78C66.9819 34.8867 72.8212 32.4006 74.9025 27.2262C76.9874 22.0554 74.5267 16.1547 69.4065 14.0481C65.728 12.5341 61.6846 13.4013 58.924 15.9235L54.9781 12.8557C55.1696 12.516 55.3503 12.1691 55.5021 11.7969C57.2654 7.41386 55.1841 2.41651 50.848 0.635093C46.5119 -1.14993 41.5651 0.956687 39.8018 5.33976C38.0384 9.72283 40.1198 14.7202 44.4559 16.5016C47.5453 17.7699 50.9347 17.0617 53.2726 14.9695L57.0378 18.2649C56.7884 18.6913 56.5572 19.1322 56.3693 19.6019C55.4659 21.8422 55.419 24.2199 56.0694 26.3662L49.9013 29.5713C48.474 27.3382 46.3818 25.5062 43.7621 24.4294C36.9761 21.6399 29.2361 24.9353 26.4719 31.79C23.7076 38.6482 26.9705 46.4677 33.7565 49.2608C35.0935 49.8101 36.4702 50.1208 37.8361 50.2184L38.183 53.9799C35.379 54.4533 32.8712 56.3323 31.7186 59.1869C29.9552 63.5627 32.0365 68.5565 36.369 70.3415C40.7015 72.1229 45.6447 70.0199 47.408 65.6404C49.1714 61.2646 47.09 56.2709 42.7576 54.4858C41.9915 54.1715 41.2038 53.9836 40.4197 53.9005L40.5281 50.1244C44.0186 49.6475 47.249 47.7757 49.4026 44.8525L55.2455 48.4044C55.2202 48.4695 55.1913 48.5273 55.1624 48.5923C52.3259 55.6385 54.7469 63.523 60.5753 67.8013L57.0378 74.5583C51.166 72.1699 44.4848 75.0281 42.0963 80.9541C39.7006 86.8982 42.5299 93.6733 48.4089 96.0943C54.2916 98.5117 60.9981 95.6571 63.3938 89.713C65.392 84.7518 63.7515 79.2088 59.7298 76.1085L63.6792 69.5863C63.7768 69.6297 63.8707 69.673 63.9683 69.7128C72.1744 73.0877 81.5331 69.1021 84.8719 60.8129C88.2107 52.5237 84.2685 43.0674 76.0624 39.6925H76.066Z" fill="white"/>
</mask>
<g mask="url(#mask17_3947_1291042)">
<path d="M64.2502 71.776L61.2438 75.5846L59.7298 76.1121C58.7289 75.487 57.905 75.0462 57.0342 74.562L58.4362 67.5664L60.5717 67.8049C60.5717 67.8049 61.7352 68.748 63.6793 69.5863C65.6233 70.4246 64.2466 71.7724 64.2466 71.7724L64.2502 71.776Z" fill="url(#paint28_linear_3947_1291042)"/>
<path d="M52.7197 96.9578C59.0579 96.9578 64.1959 91.7534 64.1959 85.3335C64.1959 78.9135 59.0579 73.7091 52.7197 73.7091C46.3816 73.7091 41.2435 78.9135 41.2435 85.3335C41.2435 91.7534 46.3816 96.9578 52.7197 96.9578Z" fill="url(#paint29_linear_3947_1291042)"/>
<path d="M76.066 39.6925C69.0957 36.8271 61.2944 39.2733 57.0558 45.156L51.0323 41.9292C51.0323 41.9292 51.0395 41.9111 51.0467 41.9003C52.3295 38.7133 52.3114 35.3167 51.2418 32.3139L57.5111 29.3039C58.5735 30.8035 60.0477 32.0321 61.8617 32.78C66.9819 34.8867 72.8212 32.4006 74.9025 27.2262C76.9874 22.0554 74.5267 16.1547 69.4065 14.0481C65.728 12.5341 61.6846 13.4013 58.924 15.9235L54.9781 12.8557C55.1696 12.516 55.3503 12.1691 55.5021 11.7969C57.2654 7.41386 55.1841 2.41651 50.848 0.635093C46.5119 -1.14993 41.5651 0.956687 39.8018 5.33976C38.0384 9.72283 40.1198 14.7202 44.4559 16.5016C47.5453 17.7699 50.9347 17.0617 53.2726 14.9695L57.0378 18.2649C56.7884 18.6913 56.5572 19.1322 56.3693 19.6019C55.4659 21.8422 55.419 24.2199 56.0694 26.3662L49.9013 29.5713C48.474 27.3382 46.3818 25.5062 43.7621 24.4294C36.9761 21.6399 29.2361 24.9353 26.4719 31.79C23.7076 38.6482 26.9705 46.4677 33.7565 49.2608C35.0935 49.8101 36.4702 50.1208 37.8361 50.2184L38.183 53.9799C35.379 54.4533 32.8712 56.3323 31.7186 59.1869C29.9552 63.5627 32.0365 68.5565 36.369 70.3415C40.7015 72.1229 45.6447 70.0199 47.408 65.6404C49.1714 61.2646 47.09 56.2709 42.7576 54.4858C41.9915 54.1715 41.2038 53.9836 40.4197 53.9005L40.5281 50.1244C44.0186 49.6475 47.249 47.7757 49.4026 44.8525L55.2455 48.4044C55.2202 48.4695 55.1913 48.5273 55.1624 48.5923C52.3259 55.6385 54.7469 63.523 60.5753 67.8013L57.0378 74.5583C51.166 72.1699 44.4848 75.0281 42.0963 80.9541C39.7006 86.8982 42.5299 93.6733 48.4089 96.0943C54.2916 98.5117 60.9981 95.6571 63.3938 89.713C65.392 84.7518 63.7515 79.2088 59.7298 76.1085L63.6792 69.5863C63.7768 69.6297 63.8707 69.673 63.9683 69.7128C72.1744 73.0877 81.5331 69.1021 84.8719 60.8129C88.2107 52.5237 84.2685 43.0674 76.0624 39.6925H76.066Z" fill="#FFCC00"/>
<mask id="mask18_3947_1291042" style="mask-type:luminance" maskUnits="userSpaceOnUse" x="25" y="0" width="62" height="97">
<path d="M76.066 39.6925C69.0957 36.8271 61.2944 39.2733 57.0558 45.156L51.0323 41.9292C51.0323 41.9292 51.0395 41.9111 51.0467 41.9003C52.3295 38.7133 52.3114 35.3167 51.2418 32.3139L57.5111 29.3039C58.5735 30.8035 60.0477 32.0321 61.8617 32.78C66.9819 34.8867 72.8212 32.4006 74.9025 27.2262C76.9874 22.0554 74.5267 16.1547 69.4065 14.0481C65.728 12.5341 61.6846 13.4013 58.924 15.9235L54.9781 12.8557C55.1696 12.516 55.3503 12.1691 55.5021 11.7969C57.2654 7.41386 55.1841 2.41651 50.848 0.635093C46.5119 -1.14993 41.5651 0.956687 39.8018 5.33976C38.0384 9.72283 40.1198 14.7202 44.4559 16.5016C47.5453 17.7699 50.9347 17.0617 53.2726 14.9695L57.0378 18.2649C56.7884 18.6913 56.5572 19.1322 56.3693 19.6019C55.4659 21.8422 55.419 24.2199 56.0694 26.3662L49.9013 29.5713C48.474 27.3382 46.3818 25.5062 43.7621 24.4294C36.9761 21.6399 29.2361 24.9353 26.4719 31.79C23.7076 38.6482 26.9705 46.4677 33.7565 49.2608C35.0935 49.8101 36.4702 50.1208 37.8361 50.2184L38.183 53.9799C35.379 54.4533 32.8712 56.3323 31.7186 59.1869C29.9552 63.5627 32.0365 68.5565 36.369 70.3415C40.7015 72.1229 45.6447 70.0199 47.408 65.6404C49.1714 61.2646 47.09 56.2709 42.7576 54.4858C41.9915 54.1715 41.2038 53.9836 40.4197 53.9005L40.5281 50.1244C44.0186 49.6475 47.249 47.7757 49.4026 44.8525L55.2455 48.4044C55.2202 48.4695 55.1913 48.5273 55.1624 48.5923C52.3259 55.6385 54.7469 63.523 60.5753 67.8013L57.0378 74.5583C51.166 72.1699 44.4848 75.0281 42.0963 80.9541C39.7006 86.8982 42.5299 93.6733 48.4089 96.0943C54.2916 98.5117 60.9981 95.6571 63.3938 89.713C65.392 84.7518 63.7515 79.2088 59.7298 76.1085L63.6792 69.5863C63.7768 69.6297 63.8707 69.673 63.9683 69.7128C72.1744 73.0877 81.5331 69.1021 84.8719 60.8129C88.2107 52.5237 84.2685 43.0674 76.0624 39.6925H76.066Z" fill="white"/>
</mask>
<g mask="url(#mask18_3947_1291042)">
<path d="M64.2502 71.7759L61.2438 75.5844L59.7298 76.112C58.7289 75.4869 57.905 75.046 57.0342 74.5619L58.4362 67.5663L60.5717 67.8048C60.5717 67.8048 61.7352 68.7479 63.6793 69.5862C65.6233 70.4245 64.2466 71.7723 64.2466 71.7723L64.2502 71.7759Z" fill="url(#paint30_radial_3947_1291042)"/>
<path d="M53.1245 48.8198L49.287 45.8495L48.745 44.3428C49.3593 43.3382 49.7929 42.5071 50.2662 41.6327L57.2763 42.966L57.0559 45.1558C57.0559 45.1558 56.0622 46.453 55.2419 48.4042C54.4217 50.3555 53.1245 48.8198 53.1245 48.8198Z" fill="url(#paint31_linear_3947_1291042)"/>
<path d="M53.1245 48.8197L49.399 44.8521C48.7847 44.4005 48.5607 43.5838 48.857 42.8828L48.9763 42.601C49.5905 41.5964 50.6131 41.7085 51.0467 41.8964L57.2763 42.9659L57.0559 45.1557C57.0559 45.1557 56.0622 46.4529 55.2419 48.4041C54.4217 50.3554 53.1245 48.8197 53.1245 48.8197Z" fill="url(#paint32_linear_3947_1291042)"/>
<path d="M56.6439 31.6849L51.9717 32.9966L51.2418 32.31C50.7974 31.1104 50.3421 30.2938 49.8976 29.5675L54.418 24.8628L56.0694 26.3624C56.0694 26.3624 56.4668 27.8728 57.5147 29.2965C58.7686 31.0056 56.6475 31.6849 56.6475 31.6849H56.6439Z" fill="url(#paint33_linear_3947_1291042)"/>
<path d="M53.1245 48.8199L49.3991 44.8523C48.7812 44.3212 48.5644 43.4576 48.8571 42.6987L48.9293 42.5072C49.5436 41.5027 50.2663 41.6328 51.0432 41.8966L57.2727 42.9661L57.0523 45.1559C57.0523 45.1559 56.0586 46.4531 55.2384 48.4043C54.4181 50.3556 53.1209 48.8199 53.1209 48.8199H53.1245Z" fill="url(#paint34_radial_3947_1291042)"/>
<path style="mix-blend-mode:multiply" d="M53.1245 48.8199L49.3991 44.8523C48.7812 44.3212 48.5644 43.4576 48.8571 42.6987L48.9293 42.5072C49.5436 41.5027 50.2663 41.6328 51.0432 41.8966L57.2727 42.9661L57.0523 45.1559C57.0523 45.1559 56.0586 46.4531 55.2384 48.4043C54.4181 50.3556 53.1209 48.8199 53.1209 48.8199H53.1245Z" fill="url(#paint35_radial_3947_1291042)"/>
<path d="M41.1641 51.7214L40.9075 53.6726L40.1523 53.8786C39.5308 53.7991 37.9481 53.5968 37.4206 53.557L36.7123 50.5904L37.8253 50.2182C37.8253 50.2182 39.267 50.2796 40.5281 50.1279C41.6483 49.9906 41.1677 51.7214 41.1677 51.7214H41.1641Z" fill="url(#paint36_linear_3947_1291042)"/>
<path d="M52.7198 96.9577C59.0579 96.9577 64.196 91.7533 64.196 85.3333C64.196 78.9134 59.0579 73.709 52.7198 73.709C46.3817 73.709 41.2436 78.9134 41.2436 85.3333C41.2436 91.7533 46.3817 96.9577 52.7198 96.9577Z" fill="url(#paint37_linear_3947_1291042)"/>
</g>
<path d="M98.527 93.3227C98.1114 93.3118 97.6959 93.2902 97.2767 93.2902C77.0236 93.2902 59.4334 104.792 50.5408 121.681C50.9564 121.692 51.3719 121.713 51.7875 121.713C72.0407 121.713 89.6308 110.212 98.527 93.3227Z" fill="#4BB066"/>
<path d="M50.5011 121.677C45.5507 97.8539 24.9073 79.8735 0 79.2737C4.94677 103.101 25.5938 121.077 50.5011 121.677Z" fill="#4BB066"/>
<path d="M52.7197 96.9578C59.0579 96.9578 64.1959 91.7534 64.1959 85.3335C64.1959 78.9135 59.0579 73.7091 52.7197 73.7091C46.3816 73.7091 41.2435 78.9135 41.2435 85.3335C41.2435 91.7534 46.3816 96.9578 52.7197 96.9578Z" fill="url(#paint38_radial_3947_1291042)"/>
<path d="M70.0171 70.9124C78.8778 70.9124 86.0607 63.655 86.0607 54.7026C86.0607 45.7502 78.8778 38.4928 70.0171 38.4928C61.1565 38.4928 53.9736 45.7502 53.9736 54.7026C53.9736 63.655 61.1565 70.9124 70.0171 70.9124Z" fill="url(#paint39_linear_3947_1291042)"/>
<path d="M70.0171 70.9124C78.8778 70.9124 86.0607 63.655 86.0607 54.7026C86.0607 45.7502 78.8778 38.4928 70.0171 38.4928C61.1565 38.4928 53.9736 45.7502 53.9736 54.7026C53.9736 63.655 61.1565 70.9124 70.0171 70.9124Z" fill="url(#paint40_radial_3947_1291042)"/>
<path d="M65.6377 33.5026C71.1656 33.5026 75.6469 28.9809 75.6469 23.4031C75.6469 17.8253 71.1656 13.3036 65.6377 13.3036C60.1098 13.3036 55.6285 17.8253 55.6285 23.4031C55.6285 28.9809 60.1098 33.5026 65.6377 33.5026Z" fill="url(#paint41_linear_3947_1291042)"/>
<path d="M65.6377 33.5026C71.1656 33.5026 75.6469 28.9809 75.6469 23.4031C75.6469 17.8253 71.1656 13.3036 65.6377 13.3036C60.1098 13.3036 55.6285 17.8253 55.6285 23.4031C55.6285 28.9809 60.1098 33.5026 65.6377 33.5026Z" fill="url(#paint42_radial_3947_1291042)"/>
<path d="M47.6465 17.1375C52.3322 17.1375 56.1308 13.3001 56.1308 8.56651C56.1308 3.83286 52.3322 -0.0045166 47.6465 -0.0045166C42.9607 -0.0045166 39.1622 3.83286 39.1622 8.56651C39.1622 13.3001 42.9607 17.1375 47.6465 17.1375Z" fill="url(#paint43_linear_3947_1291042)"/>
<path d="M47.6465 17.1375C52.3322 17.1375 56.1308 13.3001 56.1308 8.56651C56.1308 3.83286 52.3322 -0.0045166 47.6465 -0.0045166C42.9607 -0.0045166 39.1622 3.83286 39.1622 8.56651C39.1622 13.3001 42.9607 17.1375 47.6465 17.1375Z" fill="url(#paint44_radial_3947_1291042)"/>
<path d="M39.5596 70.9919C44.2394 70.9919 48.0331 67.1561 48.0331 62.4245C48.0331 57.6928 44.2394 53.8571 39.5596 53.8571C34.8799 53.8571 31.0862 57.6928 31.0862 62.4245C31.0862 67.1561 34.8799 70.9919 39.5596 70.9919Z" fill="url(#paint45_linear_3947_1291042)"/>
<path d="M39.5596 70.9919C44.2394 70.9919 48.0331 67.1561 48.0331 62.4245C48.0331 57.6928 44.2394 53.8571 39.5596 53.8571C34.8799 53.8571 31.0862 57.6928 31.0862 62.4245C31.0862 67.1561 34.8799 70.9919 39.5596 70.9919Z" fill="url(#paint46_radial_3947_1291042)"/>
<path d="M50.4144 41.799C50.6493 41.799 50.8552 41.8387 51.0395 41.9074C51.6755 40.3428 52.026 38.63 52.026 36.8342C52.026 29.4339 46.0855 23.432 38.7539 23.432C31.4223 23.432 25.4818 29.4303 25.4818 36.8342C25.4818 44.2381 31.4223 50.2363 38.7539 50.2363C43.09 50.2363 46.9383 48.1369 49.3593 44.8885C48.2825 44.014 48.633 41.799 50.4108 41.799H50.4144Z" fill="url(#paint47_linear_3947_1291042)"/>
<path d="M50.4144 41.7882C50.6492 41.7882 50.8588 41.8279 51.0467 41.9002C51.6791 40.3392 52.0296 38.6301 52.0296 36.8378C52.0296 29.4376 46.0891 23.4357 38.7575 23.4357C31.4259 23.4357 25.4854 29.4339 25.4854 36.8378C25.4854 44.2417 31.4259 50.24 38.7575 50.24C43.0972 50.24 46.9491 48.137 49.3701 44.8849C48.2861 44.0141 48.6329 41.7882 50.4144 41.7882Z" fill="url(#paint48_radial_3947_1291042)"/>
<path d="M49.8976 29.5678C49.8976 29.5678 50.7938 31.0131 51.2418 32.3104L57.5111 29.3004L57.8399 28.5452C58.2699 27.5587 57.5834 26.4458 56.5102 26.388L56.0657 26.3627L49.8976 29.5678Z" fill="url(#paint49_linear_3947_1291042)"/>
<path d="M49.5688 46.8578L49.399 44.8523C49.399 44.8523 49.2039 44.7945 48.969 44.4006C48.763 43.9526 48.7088 43.4503 48.8208 42.9697L48.9292 42.5072C47.2454 42.7276 31.4873 46.1134 31.5812 48.108C31.7005 50.5579 39.6644 50.2038 39.6644 50.2038L48.8028 49.3149L49.5688 46.8578Z" fill="url(#paint50_radial_3947_1291042)"/>
</g>
<path d="M58.9276 15.9233C58.9276 15.9233 57.8508 16.8664 57.0378 18.2612L53.2726 14.9658L53.2545 14.7165C53.1786 13.7119 53.9736 12.8519 54.9817 12.8519L58.9276 15.9197V15.9233Z" fill="url(#paint51_linear_3947_1291042)"/>
<path d="M58.9276 15.9233C58.9276 15.9233 57.8508 16.8664 57.0378 18.2612L53.2726 14.9658L53.2545 14.7165C53.1786 13.7119 53.9736 12.8519 54.9817 12.8519L58.9276 15.9197V15.9233Z" fill="url(#paint52_radial_3947_1291042)"/>
<path d="M58.9276 15.9233C58.9276 15.9233 57.8508 16.8664 57.0378 18.2612L53.2726 14.9658L53.2545 14.7165C53.1786 13.7119 53.9736 12.8519 54.9817 12.8519L58.9276 15.9197V15.9233Z" fill="url(#paint53_radial_3947_1291042)"/>
<path style="mix-blend-mode:multiply" d="M57.3377 29.4124L57.5148 29.3004C58.1327 28.7692 58.0423 27.2949 57.7496 26.5361L57.6774 26.3446C57.0631 25.3401 56.8535 26.1025 56.073 26.3663L49.9049 29.5714C49.9049 29.5714 50.4289 30.3591 51.2491 32.314C52.2139 31.8659 57.3449 29.416 57.3449 29.416L57.3377 29.4124Z" fill="url(#paint54_radial_3947_1291042)"/>
<path d="M57.6991 29.6256C58.317 29.0944 58.5338 28.2308 58.2411 27.472L58.1688 27.2805C57.5545 26.276 56.8499 26.0989 56.0694 26.3627L51.9357 28.4693L49.9013 29.5678C49.9013 29.5678 50.4253 30.3555 51.2455 32.3104C52.0657 34.2652 57.7027 29.6256 57.7027 29.6256H57.6991Z" fill="url(#paint55_radial_3947_1291042)"/>
<path d="M50.5011 121.677C45.5507 97.8539 24.9073 79.8735 0 79.2737C4.94677 103.101 25.5938 121.077 50.5011 121.677Z" fill="#4BB066"/>
<defs>
<linearGradient id="paint0_linear_3947_1291042" x1="100.066" y1="30.1677" x2="81.291" y2="30.4423" gradientUnits="userSpaceOnUse">
<stop stop-opacity="0"/>
<stop offset="1"/>
</linearGradient>
<linearGradient id="paint1_linear_3947_1291042" x1="123.398" y1="48.3937" x2="104.218" y2="48.6755" gradientUnits="userSpaceOnUse">
<stop stop-opacity="0"/>
<stop offset="1"/>
</linearGradient>
<linearGradient id="paint2_linear_3947_1291042" x1="147.454" y1="40.5816" x2="136.819" y2="17.2874" gradientUnits="userSpaceOnUse">
<stop stop-opacity="0"/>
<stop offset="1"/>
</linearGradient>
<linearGradient id="paint3_linear_3947_1291042" x1="168.172" y1="28.4621" x2="148.992" y2="28.7439" gradientUnits="userSpaceOnUse">
<stop stop-opacity="0"/>
<stop offset="1"/>
</linearGradient>
<linearGradient id="paint4_linear_3947_1291042" x1="214.107" y1="40.2138" x2="203.345" y2="16.6512" gradientUnits="userSpaceOnUse">
<stop stop-opacity="0"/>
<stop offset="1"/>
</linearGradient>
<linearGradient id="paint5_linear_3947_1291042" x1="254.903" y1="31.9344" x2="236.595" y2="-8.15339" gradientUnits="userSpaceOnUse">
<stop stop-opacity="0"/>
<stop offset="1"/>
</linearGradient>
<linearGradient id="paint6_linear_3947_1291042" x1="237.544" y1="35.3858" x2="203.962" y2="-3.36346" gradientUnits="userSpaceOnUse">
<stop stop-opacity="0"/>
<stop offset="1"/>
</linearGradient>
<linearGradient id="paint7_linear_3947_1291042" x1="185.057" y1="42.5435" x2="164.551" y2="42.847" gradientUnits="userSpaceOnUse">
<stop stop-opacity="0"/>
<stop offset="1"/>
</linearGradient>
<linearGradient id="paint8_linear_3947_1291042" x1="95.9832" y1="110.44" x2="96.2578" y2="77.5033" gradientUnits="userSpaceOnUse">
<stop stop-color="#FF8E00"/>
<stop offset="0.42" stop-color="#FFAF00"/>
<stop offset="0.77" stop-color="#FFC400"/>
<stop offset="1" stop-color="#FFCC00"/>
</linearGradient>
<linearGradient id="paint9_linear_3947_1291042" x1="98.5306" y1="79.3498" x2="73.1283" y2="79.1619" gradientUnits="userSpaceOnUse">
<stop stop-color="#870000" stop-opacity="0"/>
<stop offset="0.56" stop-color="#870000"/>
</linearGradient>
<linearGradient id="paint10_linear_3947_1291042" x1="115.904" y1="110.609" x2="116.182" y2="77.6731" gradientUnits="userSpaceOnUse">
<stop stop-color="#FF8E00"/>
<stop offset="0.42" stop-color="#FFAF00"/>
<stop offset="0.77" stop-color="#FFC400"/>
<stop offset="1" stop-color="#FFCC00"/>
</linearGradient>
<linearGradient id="paint11_linear_3947_1291042" x1="118.965" y1="91.1629" x2="94.1265" y2="79.3557" gradientUnits="userSpaceOnUse">
<stop stop-color="#870000" stop-opacity="0"/>
<stop offset="0.56" stop-color="#870000"/>
</linearGradient>
<linearGradient id="paint12_linear_3947_1291042" x1="137.902" y1="110.794" x2="138.181" y2="77.8574" gradientUnits="userSpaceOnUse">
<stop stop-color="#FF8E00"/>
<stop offset="0.42" stop-color="#FFAF00"/>
<stop offset="0.77" stop-color="#FFC400"/>
<stop offset="1" stop-color="#FFCC00"/>
</linearGradient>
<linearGradient id="paint13_linear_3947_1291042" x1="139.348" y1="69.8211" x2="117.382" y2="69.6585" gradientUnits="userSpaceOnUse">
<stop stop-color="#870000" stop-opacity="0"/>
<stop offset="0.56" stop-color="#870000"/>
</linearGradient>
<linearGradient id="paint14_linear_3947_1291042" x1="158.614" y1="110.967" x2="158.889" y2="78.0308" gradientUnits="userSpaceOnUse">
<stop stop-color="#FF8E00"/>
<stop offset="0.42" stop-color="#FFAF00"/>
<stop offset="0.77" stop-color="#FFC400"/>
<stop offset="1" stop-color="#FFCC00"/>
</linearGradient>
<linearGradient id="paint15_linear_3947_1291042" x1="161.213" y1="96.7412" x2="135.655" y2="96.5533" gradientUnits="userSpaceOnUse">
<stop stop-color="#870000" stop-opacity="0"/>
<stop offset="0.56" stop-color="#870000"/>
</linearGradient>
<linearGradient id="paint16_linear_3947_1291042" x1="179.988" y1="111.148" x2="180.262" y2="78.2115" gradientUnits="userSpaceOnUse">
<stop stop-color="#FF8E00"/>
<stop offset="0.42" stop-color="#FFAF00"/>
<stop offset="0.77" stop-color="#FFC400"/>
<stop offset="1" stop-color="#FFCC00"/>
</linearGradient>
<linearGradient id="paint17_linear_3947_1291042" x1="183.027" y1="90.0131" x2="157.635" y2="89.8288" gradientUnits="userSpaceOnUse">
<stop stop-color="#870000" stop-opacity="0"/>
<stop offset="0.56" stop-color="#870000"/>
</linearGradient>
<linearGradient id="paint18_linear_3947_1291042" x1="195.406" y1="111.274" x2="195.685" y2="78.3416" gradientUnits="userSpaceOnUse">
<stop stop-color="#FF8E00"/>
<stop offset="0.42" stop-color="#FFAF00"/>
<stop offset="0.77" stop-color="#FFC400"/>
<stop offset="1" stop-color="#FFCC00"/>
</linearGradient>
<linearGradient id="paint19_linear_3947_1291042" x1="197.076" y1="83.0139" x2="169.466" y2="82.8116" gradientUnits="userSpaceOnUse">
<stop stop-color="#870000" stop-opacity="0"/>
<stop offset="0.56" stop-color="#870000"/>
</linearGradient>
<linearGradient id="paint20_linear_3947_1291042" x1="211.414" y1="111.412" x2="211.688" y2="78.4753" gradientUnits="userSpaceOnUse">
<stop stop-color="#FF8E00"/>
<stop offset="0.42" stop-color="#FFAF00"/>
<stop offset="0.77" stop-color="#FFC400"/>
<stop offset="1" stop-color="#FFCC00"/>
</linearGradient>
<linearGradient id="paint21_linear_3947_1291042" x1="214.026" y1="61.98" x2="188.418" y2="62.1642" gradientUnits="userSpaceOnUse">
<stop stop-color="#870000" stop-opacity="0"/>
<stop offset="0.56" stop-color="#870000"/>
</linearGradient>
<linearGradient id="paint22_linear_3947_1291042" x1="232.288" y1="111.585" x2="232.567" y2="78.6487" gradientUnits="userSpaceOnUse">
<stop stop-color="#FF8E00"/>
<stop offset="0.42" stop-color="#FFAF00"/>
<stop offset="0.77" stop-color="#FFC400"/>
<stop offset="1" stop-color="#FFCC00"/>
</linearGradient>
<linearGradient id="paint23_linear_3947_1291042" x1="235.14" y1="80.9892" x2="206.175" y2="90.3512" gradientUnits="userSpaceOnUse">
<stop stop-color="#870000" stop-opacity="0"/>
<stop offset="0.56" stop-color="#870000"/>
</linearGradient>
<linearGradient id="paint24_linear_3947_1291042" x1="254.728" y1="111.773" x2="255.002" y2="78.8403" gradientUnits="userSpaceOnUse">
<stop stop-color="#FF8E00"/>
<stop offset="0.42" stop-color="#FFAF00"/>
<stop offset="0.77" stop-color="#FFC400"/>
<stop offset="1" stop-color="#FFCC00"/>
</linearGradient>
<linearGradient id="paint25_linear_3947_1291042" x1="262.28" y1="61.9043" x2="225.394" y2="62.1753" gradientUnits="userSpaceOnUse">
<stop stop-color="#870000" stop-opacity="0"/>
<stop offset="0.56" stop-color="#870000"/>
</linearGradient>
<linearGradient id="paint26_linear_3947_1291042" x1="276.036" y1="111.954" x2="276.314" y2="79.0173" gradientUnits="userSpaceOnUse">
<stop stop-color="#FF8E00"/>
<stop offset="0.42" stop-color="#FFAF00"/>
<stop offset="0.77" stop-color="#FFC400"/>
<stop offset="1" stop-color="#FFCC00"/>
</linearGradient>
<linearGradient id="paint27_linear_3947_1291042" x1="273.167" y1="71.9025" x2="273.355" y2="97.5108" gradientUnits="userSpaceOnUse">
<stop stop-color="#870000" stop-opacity="0"/>
<stop offset="0.56" stop-color="#870000"/>
</linearGradient>
<linearGradient id="paint28_linear_3947_1291042" x1="59.9213" y1="72.0398" x2="66.7796" y2="60.8057" gradientUnits="userSpaceOnUse">
<stop stop-color="#8D0000" stop-opacity="0"/>
<stop offset="1" stop-color="#8D0000"/>
</linearGradient>
<linearGradient id="paint29_linear_3947_1291042" x1="56.6764" y1="78.5836" x2="22.3273" y2="137.197" gradientUnits="userSpaceOnUse">
<stop stop-color="#8D0000" stop-opacity="0"/>
<stop offset="1" stop-color="#8D0000"/>
</linearGradient>
<radialGradient id="paint30_radial_3947_1291042" cx="0" cy="0" r="1" gradientUnits="userSpaceOnUse" gradientTransform="translate(63.2926 68.0975) scale(10.179 10.179)">
<stop stop-color="#8D0000" stop-opacity="0.5"/>
<stop offset="0.67" stop-color="#8D0000" stop-opacity="0"/>
</radialGradient>
<linearGradient id="paint31_linear_3947_1291042" x1="53.1875" y1="44.1875" x2="57.3703" y2="56.7284" gradientUnits="userSpaceOnUse">
<stop stop-color="#8D0000" stop-opacity="0"/>
<stop offset="1" stop-color="#8D0000"/>
</linearGradient>
<linearGradient id="paint32_linear_3947_1291042" x1="51.7286" y1="46.0991" x2="53.5109" y2="43.6385" gradientUnits="userSpaceOnUse">
<stop stop-color="#F3B800"/>
<stop offset="1" stop-color="#FAC400"/>
</linearGradient>
<linearGradient id="paint33_linear_3947_1291042" x1="54.3566" y1="28.8881" x2="27.0609" y2="42.8432" gradientUnits="userSpaceOnUse">
<stop stop-color="#8D0000" stop-opacity="0"/>
<stop offset="0.77" stop-color="#8D0000"/>
</linearGradient>
<radialGradient id="paint34_radial_3947_1291042" cx="0" cy="0" r="1" gradientUnits="userSpaceOnUse" gradientTransform="translate(53.2284 43.6884) rotate(23.27) scale(4.11207 1.11026)">
<stop stop-color="white" stop-opacity="0.4"/>
<stop offset="0.25" stop-color="white" stop-opacity="0.39"/>
<stop offset="0.44" stop-color="white" stop-opacity="0.35"/>
<stop offset="0.61" stop-color="white" stop-opacity="0.29"/>
<stop offset="0.77" stop-color="white" stop-opacity="0.19"/>
<stop offset="0.92" stop-color="white" stop-opacity="0.08"/>
<stop offset="1" stop-color="white" stop-opacity="0"/>
</radialGradient>
<radialGradient id="paint35_radial_3947_1291042" cx="0" cy="0" r="1" gradientUnits="userSpaceOnUse" gradientTransform="translate(52.3651 46.2169) rotate(30.13) scale(4.12291 1.48425)">
<stop stop-color="#D17B00" stop-opacity="0.4"/>
<stop offset="0.66" stop-color="#D17C00" stop-opacity="0.14"/>
<stop offset="1" stop-color="#D27E00" stop-opacity="0"/>
</radialGradient>
<linearGradient id="paint36_linear_3947_1291042" x1="38.8585" y1="51.914" x2="39.6032" y2="45.501" gradientUnits="userSpaceOnUse">
<stop stop-color="#8D0000" stop-opacity="0"/>
<stop offset="0.16" stop-color="#8D0000" stop-opacity="0.22"/>
<stop offset="0.43" stop-color="#8D0000" stop-opacity="0.55"/>
<stop offset="0.67" stop-color="#8D0000" stop-opacity="0.8"/>
<stop offset="0.87" stop-color="#8D0000" stop-opacity="0.95"/>
<stop offset="1" stop-color="#8D0000"/>
</linearGradient>
<linearGradient id="paint37_linear_3947_1291042" x1="56.6765" y1="78.5835" x2="22.3274" y2="137.197" gradientUnits="userSpaceOnUse">
<stop stop-color="#8D0000" stop-opacity="0"/>
<stop offset="1" stop-color="#8D0000"/>
</linearGradient>
<radialGradient id="paint38_radial_3947_1291042" cx="0" cy="0" r="1" gradientUnits="userSpaceOnUse" gradientTransform="translate(55.5816 80.1085) scale(6.85103)">
<stop stop-color="white" stop-opacity="0.5"/>
<stop offset="0.82" stop-color="white" stop-opacity="0"/>
</radialGradient>
<linearGradient id="paint39_linear_3947_1291042" x1="75.5348" y1="45.286" x2="27.6029" y2="127.079" gradientUnits="userSpaceOnUse">
<stop stop-color="#8D0000" stop-opacity="0"/>
<stop offset="1" stop-color="#8D0000"/>
</linearGradient>
<radialGradient id="paint40_radial_3947_1291042" cx="0" cy="0" r="1" gradientUnits="userSpaceOnUse" gradientTransform="translate(74.3612 47.9513) scale(9.59145)">
<stop stop-color="white" stop-opacity="0.5"/>
<stop offset="0.82" stop-color="white" stop-opacity="0"/>
</radialGradient>
<linearGradient id="paint41_linear_3947_1291042" x1="69.0777" y1="17.5349" x2="39.202" y2="68.5057" gradientUnits="userSpaceOnUse">
<stop stop-color="#8D0000" stop-opacity="0"/>
<stop offset="1" stop-color="#8D0000"/>
</linearGradient>
<radialGradient id="paint42_radial_3947_1291042" cx="0" cy="0" r="1" gradientUnits="userSpaceOnUse" gradientTransform="translate(68.1729 19.2881) scale(5.97442)">
<stop stop-color="white" stop-opacity="0.5"/>
<stop offset="0.82" stop-color="white" stop-opacity="0"/>
</radialGradient>
<linearGradient id="paint43_linear_3947_1291042" x1="50.5661" y1="3.58722" x2="25.2216" y2="46.8326" gradientUnits="userSpaceOnUse">
<stop stop-color="#8D0000" stop-opacity="0"/>
<stop offset="1" stop-color="#8D0000"/>
</linearGradient>
<radialGradient id="paint44_radial_3947_1291042" cx="0" cy="0" r="1" gradientUnits="userSpaceOnUse" gradientTransform="translate(50.4245 5.28914) scale(5.08408 5.08408)">
<stop stop-color="white" stop-opacity="0.5"/>
<stop offset="0.82" stop-color="white" stop-opacity="0"/>
</radialGradient>
<linearGradient id="paint45_linear_3947_1291042" x1="42.4757" y1="57.4488" x2="17.1492" y2="100.665" gradientUnits="userSpaceOnUse">
<stop stop-color="#8D0000" stop-opacity="0"/>
<stop offset="1" stop-color="#8D0000"/>
</linearGradient>
<radialGradient id="paint46_radial_3947_1291042" cx="0" cy="0" r="1" gradientUnits="userSpaceOnUse" gradientTransform="translate(41.8641 58.9681) scale(5.06684)">
<stop stop-color="white" stop-opacity="0.5"/>
<stop offset="0.82" stop-color="white" stop-opacity="0"/>
</radialGradient>
<linearGradient id="paint47_linear_3947_1291042" x1="41.8759" y1="33.0365" x2="11.4762" y2="70.0378" gradientUnits="userSpaceOnUse">
<stop stop-color="#8D0000" stop-opacity="0"/>
<stop offset="0.17" stop-color="#8D0000" stop-opacity="0.18"/>
<stop offset="0.74" stop-color="#8D0000" stop-opacity="0.77"/>
<stop offset="1" stop-color="#8D0000"/>
</linearGradient>
<radialGradient id="paint48_radial_3947_1291042" cx="0" cy="0" r="1" gradientUnits="userSpaceOnUse" gradientTransform="translate(41.6649 31.039) scale(7.91172)">
<stop stop-color="white" stop-opacity="0.5"/>
<stop offset="0.82" stop-color="white" stop-opacity="0"/>
</radialGradient>
<linearGradient id="paint49_linear_3947_1291042" x1="55.0648" y1="28.7114" x2="23.2812" y2="44.9609" gradientUnits="userSpaceOnUse">
<stop stop-color="#E29A00"/>
<stop offset="0.03" stop-color="#E8A500"/>
<stop offset="0.09" stop-color="#F2B600"/>
<stop offset="0.16" stop-color="#F9C300"/>
<stop offset="0.27" stop-color="#FCCA00"/>
<stop offset="0.53" stop-color="#FECC00"/>
<stop offset="1" stop-color="#8D0000"/>
</linearGradient>
<radialGradient id="paint50_radial_3947_1291042" cx="0" cy="0" r="1" gradientUnits="userSpaceOnUse" gradientTransform="translate(55.4048 48.5536) rotate(71.39) scale(6.77877 15.7945)">
<stop stop-color="#8D0000"/>
<stop offset="0.42" stop-color="#8D0000" stop-opacity="0.51"/>
<stop offset="0.77" stop-color="#8D0000" stop-opacity="0.14"/>
<stop offset="0.94" stop-color="#8D0000" stop-opacity="0"/>
</radialGradient>
<linearGradient id="paint51_linear_3947_1291042" x1="53.6123" y1="14.4454" x2="58.1001" y2="16.5268" gradientUnits="userSpaceOnUse">
<stop stop-color="#EEAF00"/>
<stop offset="0.77" stop-color="#FECC00"/>
</linearGradient>
<radialGradient id="paint52_radial_3947_1291042" cx="0" cy="0" r="1" gradientUnits="userSpaceOnUse" gradientTransform="translate(59.3612 22.8575) scale(7.96759 7.96758)">
<stop stop-color="#8D0000"/>
<stop offset="1" stop-color="#8D0000" stop-opacity="0"/>
</radialGradient>
<radialGradient id="paint53_radial_3947_1291042" cx="0" cy="0" r="1" gradientUnits="userSpaceOnUse" gradientTransform="translate(56.4031 14.9853) rotate(35.96) scale(2.7462 1.01609)">
<stop stop-color="white" stop-opacity="0.5"/>
<stop offset="1" stop-color="white" stop-opacity="0"/>
</radialGradient>
<radialGradient id="paint54_radial_3947_1291042" cx="0" cy="0" r="1" gradientUnits="userSpaceOnUse" gradientTransform="translate(54.4437 30.1771) rotate(149.87) scale(3.79047 1.36457)">
<stop stop-color="#D17B00" stop-opacity="0.4"/>
<stop offset="0.66" stop-color="#D17C00" stop-opacity="0.14"/>
<stop offset="1" stop-color="#D27E00" stop-opacity="0"/>
</radialGradient>
<radialGradient id="paint55_radial_3947_1291042" cx="0" cy="0" r="1" gradientUnits="userSpaceOnUse" gradientTransform="translate(53.6909 28.2311) rotate(154.54) scale(3.71098 0.445317)">
<stop stop-color="white" stop-opacity="0.3"/>
<stop offset="0.83" stop-color="white" stop-opacity="0.05"/>
<stop offset="1" stop-color="white" stop-opacity="0"/>
</radialGradient>
</defs>
</svg>
