<svg width="315" height="54" viewBox="0 0 315 54" fill="none" xmlns="http://www.w3.org/2000/svg">
<path d="M42.7066 6.61084C46.5972 6.61084 50.2051 9.04901 50.2051 15.5151V16.6408C50.2051 23.1069 46.5972 25.5451 42.7066 25.5451H41.0208C40.3966 25.5451 40.0845 25.8572 40.0845 26.4814V38.4773C40.0845 39.1802 39.8044 39.4136 39.1482 39.4136H37.0862C36.3366 39.4136 36.1499 39.1802 36.1499 38.4773V7.54712C36.1499 6.84422 36.3833 6.61084 37.0862 6.61084H42.7093H42.7066ZM41.0208 21.8906H42.7066C44.7686 21.8906 46.2678 20.6715 46.2678 16.8303V15.3312C46.2678 11.4872 44.7686 10.2708 42.7066 10.2708H41.0208C40.3966 10.2708 40.0845 10.5829 40.0845 11.2071V20.9104C40.0845 21.5657 40.3966 21.8934 41.0208 21.8934V21.8906Z" fill="#4BB066"/>
<mask id="mask0_4213_473666" style="mask-type:luminance" maskUnits="userSpaceOnUse" x="36" y="6" width="15" height="34">
<path d="M42.7066 6.61084C46.5972 6.61084 50.2051 9.04901 50.2051 15.5151V16.6408C50.2051 23.1069 46.5972 25.5451 42.7066 25.5451H41.0208C40.3966 25.5451 40.0845 25.8572 40.0845 26.4814V38.4773C40.0845 39.1802 39.8044 39.4136 39.1482 39.4136H37.0862C36.3366 39.4136 36.1499 39.1802 36.1499 38.4773V7.54712C36.1499 6.84422 36.3833 6.61084 37.0862 6.61084H42.7093H42.7066ZM41.0208 21.8906H42.7066C44.7686 21.8906 46.2678 20.6715 46.2678 16.8303V15.3312C46.2678 11.4872 44.7686 10.2708 42.7066 10.2708H41.0208C40.3966 10.2708 40.0845 10.5829 40.0845 11.2071V20.9104C40.0845 21.5657 40.3966 21.8934 41.0208 21.8934V21.8906Z" fill="white"/>
</mask>
<g mask="url(#mask0_4213_473666)">
<path d="M43.2698 20.405L40.082 20.3007V26.9425L48.9479 26.8547L51.6798 22.2639L50.5761 19.5292L45.4059 18.9333L44.1264 20.125L43.2698 20.405Z" fill="url(#paint0_linear_4213_473666)"/>
</g>
<path d="M53.7361 38.4771V7.54688C53.7361 6.84398 53.9695 6.6106 54.6724 6.6106H64.5624C65.2653 6.6106 65.4986 6.84398 65.4986 7.54688V9.32883C65.4986 10.0317 65.2653 10.2651 64.5624 10.2651H58.6097C57.9855 10.2651 57.6734 10.5772 57.6734 11.2014V19.3561C57.6734 19.9803 57.9855 20.2924 58.6097 20.2924H64.5624C65.2653 20.2924 65.4986 20.5258 65.4986 21.2287V23.0106C65.4986 23.7135 65.2653 23.9469 64.5624 23.9469H58.6097C57.9855 23.9469 57.6734 24.259 57.6734 24.8832V34.8198C57.6734 35.444 57.9855 35.7561 58.6097 35.7561H64.5624C65.2653 35.7561 65.4986 35.9895 65.4986 36.6924V38.4743C65.4986 39.1772 65.2653 39.4106 64.5624 39.4106H54.6724C53.9695 39.4106 53.7361 39.1772 53.7361 38.4743V38.4771Z" fill="#4BB066"/>
<mask id="mask1_4213_473666" style="mask-type:luminance" maskUnits="userSpaceOnUse" x="53" y="6" width="13" height="34">
<path d="M53.7361 38.4771V7.54688C53.7361 6.84398 53.9695 6.6106 54.6724 6.6106H64.5624C65.2653 6.6106 65.4986 6.84398 65.4986 7.54688V9.32883C65.4986 10.0317 65.2653 10.2651 64.5624 10.2651H58.6097C57.9855 10.2651 57.6734 10.5772 57.6734 11.2014V19.3561C57.6734 19.9803 57.9855 20.2924 58.6097 20.2924H64.5624C65.2653 20.2924 65.4986 20.5258 65.4986 21.2287V23.0106C65.4986 23.7135 65.2653 23.9469 64.5624 23.9469H58.6097C57.9855 23.9469 57.6734 24.259 57.6734 24.8832V34.8198C57.6734 35.444 57.9855 35.7561 58.6097 35.7561H64.5624C65.2653 35.7561 65.4986 35.9895 65.4986 36.6924V38.4743C65.4986 39.1772 65.2653 39.4106 64.5624 39.4106H54.6724C53.9695 39.4106 53.7361 39.1772 53.7361 38.4743V38.4771Z" fill="white"/>
</mask>
<g mask="url(#mask1_4213_473666)">
<path d="M61.1466 34.2515L57.6733 34.4354L57.6953 39.957L66.8247 40.7011L69.5567 36.1103L68.4529 33.3756L63.2828 32.7798L62.0033 33.9714L61.1466 34.2515Z" fill="url(#paint1_linear_4213_473666)"/>
</g>
<path d="M76.064 6.6106C79.9547 6.6106 83.5625 9.04877 83.5625 15.5149V16.7806C83.5625 20.5779 82.2967 23.0134 80.4681 24.3258C80.4681 24.3725 80.5148 24.4191 83.3264 38.4331C83.5131 39.1827 83.1397 39.4161 82.7635 39.4161H80.5615C79.9519 39.4161 79.6719 39.4161 79.5291 38.7132L76.9975 26.105C76.9042 25.6822 76.6214 25.6822 76.4347 25.6822H74.3727C73.7485 25.6822 73.4364 25.9943 73.4364 26.6184V38.4743C73.4364 39.1772 73.1563 39.4106 72.5001 39.4106H70.4381C69.6885 39.4106 69.5018 39.1772 69.5018 38.4743V7.54688C69.5018 6.84398 69.7352 6.6106 70.4381 6.6106H76.0613H76.064ZM74.3782 22.0304H76.064C78.1261 22.0304 79.6252 20.8113 79.6252 16.9701V15.3309C79.6252 11.4869 78.1261 10.2706 76.064 10.2706H74.3782C73.754 10.2706 73.4419 10.5827 73.4419 11.2069V21.0474C73.4419 21.7027 73.754 22.0304 74.3782 22.0304Z" fill="#4BB066"/>
<mask id="mask2_4213_473666" style="mask-type:luminance" maskUnits="userSpaceOnUse" x="69" y="6" width="15" height="34">
<path d="M76.064 6.6106C79.9547 6.6106 83.5625 9.04877 83.5625 15.5149V16.7806C83.5625 20.5779 82.2967 23.0134 80.4681 24.3258C80.4681 24.3725 80.5148 24.4191 83.3264 38.4331C83.5131 39.1827 83.1397 39.4161 82.7635 39.4161H80.5615C79.9519 39.4161 79.6719 39.4161 79.5291 38.7132L76.9975 26.105C76.9042 25.6822 76.6214 25.6822 76.4347 25.6822H74.3727C73.7485 25.6822 73.4364 25.9943 73.4364 26.6184V38.4743C73.4364 39.1772 73.1563 39.4106 72.5001 39.4106H70.4381C69.6885 39.4106 69.5018 39.1772 69.5018 38.4743V7.54688C69.5018 6.84398 69.7352 6.6106 70.4381 6.6106H76.0613H76.064ZM74.3782 22.0304H76.064C78.1261 22.0304 79.6252 20.8113 79.6252 16.9701V15.3309C79.6252 11.4869 78.1261 10.2706 76.064 10.2706H74.3782C73.754 10.2706 73.4419 10.5827 73.4419 11.2069V21.0474C73.4419 21.7027 73.754 22.0304 74.3782 22.0304Z" fill="white"/>
</mask>
<g mask="url(#mask2_4213_473666)">
<path d="M83.2934 26.7419L80.4709 24.3257C79.4495 25.1604 78.1782 25.6299 76.8603 25.6683L76.2068 25.6848L78.6368 38.6966L79.8531 39.416L83.9661 39.6329L85.5037 28.1092L83.8975 27.4173L83.2962 26.7446L83.2934 26.7419Z" fill="url(#paint2_linear_4213_473666)"/>
</g>
<path d="M87.78 38.4771V7.54688C87.78 6.84398 88.0134 6.6106 88.7163 6.6106H98.6063C99.3092 6.6106 99.5426 6.84398 99.5426 7.54688V9.32883C99.5426 10.0317 99.3092 10.2651 98.6063 10.2651H92.6536C92.0294 10.2651 91.7173 10.5772 91.7173 11.2014V19.3561C91.7173 19.9803 92.0294 20.2924 92.6536 20.2924H97.1538C97.8567 20.2924 98.0901 20.5258 98.0901 21.2287V23.0106C98.0901 23.7135 97.8567 23.9469 97.1538 23.9469H92.6536C92.0294 23.9469 91.7173 24.259 91.7173 24.8832V38.4743C91.7173 39.1772 91.484 39.4106 90.7811 39.4106H88.7191C88.0162 39.4106 87.7828 39.1772 87.7828 38.4743L87.78 38.4771Z" fill="#4BB066"/>
<mask id="mask3_4213_473666" style="mask-type:luminance" maskUnits="userSpaceOnUse" x="87" y="6" width="13" height="34">
<path d="M87.78 38.4771V7.54688C87.78 6.84398 88.0134 6.6106 88.7163 6.6106H98.6063C99.3092 6.6106 99.5426 6.84398 99.5426 7.54688V9.32883C99.5426 10.0317 99.3092 10.2651 98.6063 10.2651H92.6536C92.0294 10.2651 91.7173 10.5772 91.7173 11.2014V19.3561C91.7173 19.9803 92.0294 20.2924 92.6536 20.2924H97.1538C97.8567 20.2924 98.0901 20.5258 98.0901 21.2287V23.0106C98.0901 23.7135 97.8567 23.9469 97.1538 23.9469H92.6536C92.0294 23.9469 91.7173 24.259 91.7173 24.8832V38.4743C91.7173 39.1772 91.484 39.4106 90.7811 39.4106H88.7191C88.0162 39.4106 87.7828 39.1772 87.7828 38.4743L87.78 38.4771Z" fill="white"/>
</mask>
<g mask="url(#mask3_4213_473666)">
<path d="M95.1686 19.1062L91.7173 19.1254V24.8118L100.847 25.5558L103.579 20.965L102.475 18.2303L97.3048 17.6345L96.0253 18.8262L95.1686 19.1062Z" fill="url(#paint3_linear_4213_473666)"/>
</g>
<path d="M126.406 6.6106C130.297 6.6106 133.905 9.04877 133.905 15.5149V16.7806C133.905 20.5779 132.639 23.0134 130.813 24.3258C130.813 24.3725 130.86 24.4191 133.671 38.4331C133.858 39.1827 133.485 39.4161 133.109 39.4161H130.907C130.297 39.4161 130.017 39.4161 129.877 38.7132L127.345 26.105C127.252 25.6822 126.969 25.6822 126.782 25.6822H124.72C124.096 25.6822 123.784 25.9943 123.784 26.6184V38.4743C123.784 39.1772 123.504 39.4106 122.848 39.4106H120.786C120.036 39.4106 119.85 39.1772 119.85 38.4743V7.54688C119.85 6.84398 120.083 6.6106 120.786 6.6106H126.409H126.406ZM124.72 22.0304H126.406C128.468 22.0304 129.967 20.8113 129.967 16.9701V15.3309C129.967 11.4869 128.468 10.2706 126.406 10.2706H124.72C124.096 10.2706 123.784 10.5827 123.784 11.2069V21.0474C123.784 21.7027 124.096 22.0304 124.72 22.0304Z" fill="#4BB066"/>
<mask id="mask4_4213_473666" style="mask-type:luminance" maskUnits="userSpaceOnUse" x="119" y="6" width="15" height="34">
<path d="M126.406 6.6106C130.297 6.6106 133.905 9.04877 133.905 15.5149V16.7806C133.905 20.5779 132.639 23.0134 130.813 24.3258C130.813 24.3725 130.86 24.4191 133.671 38.4331C133.858 39.1827 133.485 39.4161 133.109 39.4161H130.907C130.297 39.4161 130.017 39.4161 129.877 38.7132L127.345 26.105C127.252 25.6822 126.969 25.6822 126.782 25.6822H124.72C124.096 25.6822 123.784 25.9943 123.784 26.6184V38.4743C123.784 39.1772 123.504 39.4106 122.848 39.4106H120.786C120.036 39.4106 119.85 39.1772 119.85 38.4743V7.54688C119.85 6.84398 120.083 6.6106 120.786 6.6106H126.409H126.406ZM124.72 22.0304H126.406C128.468 22.0304 129.967 20.8113 129.967 16.9701V15.3309C129.967 11.4869 128.468 10.2706 126.406 10.2706H124.72C124.096 10.2706 123.784 10.5827 123.784 11.2069V21.0474C123.784 21.7027 124.096 22.0304 124.72 22.0304Z" fill="white"/>
</mask>
<g mask="url(#mask4_4213_473666)">
<path d="M133.982 26.5609L130.811 24.3231C129.789 25.1578 128.098 25.6465 126.78 25.6822H126.058L129.322 38.5156L130.539 39.235L134.652 39.4519L136.189 27.9282L134.583 27.2363L133.982 26.5636V26.5609Z" fill="url(#paint4_linear_4213_473666)"/>
</g>
<path d="M146.812 38.7599L142.126 22.0771C142.079 21.8437 141.845 21.8904 141.845 22.0771V38.4798C141.845 39.1827 141.612 39.4161 140.909 39.4161H138.847C138.144 39.4161 137.911 39.1827 137.911 38.4798V7.54688C137.911 6.84398 138.144 6.6106 138.847 6.6106H140.486C141.189 6.6106 141.236 6.75063 141.376 7.17346L148.078 31.0747C148.125 31.3081 148.405 31.3081 148.454 31.0747L155.157 7.17346C155.297 6.75063 155.39 6.6106 156.046 6.6106H157.685C158.388 6.6106 158.622 6.84398 158.622 7.54688V38.4771C158.622 39.18 158.388 39.4134 157.685 39.4134H155.623C154.92 39.4134 154.687 39.18 154.687 38.4771V22.0743C154.687 21.8876 154.454 21.8409 154.407 22.0743L149.72 38.7571C149.533 39.4134 149.157 39.4134 148.688 39.4134H147.845C147.375 39.4134 147.002 39.4134 146.815 38.7571L146.812 38.7599Z" fill="#4BB066"/>
<mask id="mask5_4213_473666" style="mask-type:luminance" maskUnits="userSpaceOnUse" x="137" y="6" width="22" height="34">
<path d="M146.812 38.7599L142.126 22.0771C142.079 21.8437 141.845 21.8904 141.845 22.0771V38.4798C141.845 39.1827 141.612 39.4161 140.909 39.4161H138.847C138.144 39.4161 137.911 39.1827 137.911 38.4798V7.54688C137.911 6.84398 138.144 6.6106 138.847 6.6106H140.486C141.189 6.6106 141.236 6.75063 141.376 7.17346L148.078 31.0747C148.125 31.3081 148.405 31.3081 148.454 31.0747L155.157 7.17346C155.297 6.75063 155.39 6.6106 156.046 6.6106H157.685C158.388 6.6106 158.622 6.84398 158.622 7.54688V38.4771C158.622 39.18 158.388 39.4134 157.685 39.4134H155.623C154.92 39.4134 154.687 39.18 154.687 38.4771V22.0743C154.687 21.8876 154.454 21.8409 154.407 22.0743L149.72 38.7571C149.533 39.4134 149.157 39.4134 148.688 39.4134H147.845C147.375 39.4134 147.002 39.4134 146.815 38.7571L146.812 38.7599Z" fill="white"/>
</mask>
<g mask="url(#mask5_4213_473666)">
<path d="M164.456 20.5341L162.221 8.02748L159.766 5.81995C158.745 6.65464 159.297 6.5503 157.979 6.58874L154.432 22.0662L159.797 32.4916L161.013 33.211L165.126 33.4279L166.664 21.9042L165.057 21.2123L164.456 20.5396V20.5341Z" fill="url(#paint5_linear_4213_473666)"/>
<path d="M148.265 20.0481L145.783 6.35256L142.807 4.9248C142.06 6.0121 142.562 5.75949 141.307 6.16586L141.843 22.1156L145.887 37.7605L146.494 39.9571L151.074 39.8637L148.262 30.6107V20.0481H148.265Z" fill="url(#paint6_linear_4213_473666)"/>
</g>
<path d="M113.416 39.4107C112.807 39.4107 112.527 39.4107 112.384 38.7078L111.868 35.8001C111.743 35.1741 111.399 34.8611 110.835 34.8611H105.35C104.756 34.8611 104.397 35.1741 104.271 35.8001L103.754 38.7078C103.614 39.4107 103.331 39.4107 102.722 39.4107H100.66C100.19 39.4107 99.7209 39.4107 99.8637 38.6144L105.772 7.42886C105.912 6.72597 106.052 6.58594 106.805 6.58594H109.336C110.086 6.58594 110.226 6.72597 110.369 7.42886L116.277 38.6144C116.417 39.4107 115.948 39.4107 115.481 39.4107H113.419H113.416ZM105.21 30.2675C105.116 30.8935 105.382 31.2065 106.006 31.2065H110.133C110.759 31.2065 111.024 30.8935 110.929 30.2675L108.257 14.37C108.211 14.1366 107.928 14.1366 107.881 14.37L105.207 30.2675H105.21Z" fill="#4BB066"/>
<mask id="mask6_4213_473666" style="mask-type:luminance" maskUnits="userSpaceOnUse" x="99" y="6" width="18" height="34">
<path d="M113.416 39.4107C112.807 39.4107 112.527 39.4107 112.384 38.7078L111.868 35.8001C111.743 35.1741 111.399 34.8611 110.835 34.8611H105.35C104.756 34.8611 104.397 35.1741 104.271 35.8001L103.754 38.7078C103.614 39.4107 103.331 39.4107 102.722 39.4107H100.66C100.19 39.4107 99.7209 39.4107 99.8637 38.6144L105.772 7.42886C105.912 6.72597 106.052 6.58594 106.805 6.58594H109.336C110.086 6.58594 110.226 6.72597 110.369 7.42886L116.277 38.6144C116.417 39.4107 115.948 39.4107 115.481 39.4107H113.419H113.416ZM105.21 30.2675C105.116 30.8935 105.382 31.2065 106.006 31.2065H110.133C110.759 31.2065 111.024 30.8935 110.929 30.2675L108.257 14.37C108.211 14.1366 107.928 14.1366 107.881 14.37L105.207 30.2675H105.21Z" fill="white"/>
</mask>
<g mask="url(#mask6_4213_473666)">
<path d="M108.477 29.8007L105.174 30.5063L104.213 36.1322L114.155 36.2503L116.89 31.6595L115.786 28.9248L110.616 28.329L109.336 29.5206L108.477 29.8007Z" fill="url(#paint7_linear_4213_473666)"/>
</g>
<path d="M176.973 6.37164H166.587C166.227 6.37164 165.936 6.66269 165.936 7.02237V38.7543C165.936 39.114 166.227 39.405 166.587 39.405H176.973C177.333 39.405 177.624 39.114 177.624 38.7543V36.2832C177.624 35.9235 177.333 35.6325 176.973 35.6325L169.788 35.627L169.793 24.7897H175.886C176.246 24.7897 176.537 24.4987 176.537 24.139V21.6349C176.537 21.2753 176.246 20.9842 175.886 20.9842L169.788 20.9787L169.793 10.1415H176.971C177.33 10.1415 177.621 9.85043 177.621 9.49075V7.01963C177.621 6.65994 177.33 6.3689 176.971 6.3689L176.973 6.37164Z" fill="url(#paint8_linear_4213_473666)"/>
<mask id="mask7_4213_473666" style="mask-type:luminance" maskUnits="userSpaceOnUse" x="165" y="6" width="13" height="34">
<path d="M176.973 6.37164H166.587C166.227 6.37164 165.936 6.66269 165.936 7.02237V38.7543C165.936 39.114 166.227 39.405 166.587 39.405H176.973C177.333 39.405 177.624 39.114 177.624 38.7543V36.2832C177.624 35.9235 177.333 35.6325 176.973 35.6325L169.788 35.627L169.793 24.7897H175.886C176.246 24.7897 176.537 24.4987 176.537 24.139V21.6349C176.537 21.2753 176.246 20.9842 175.886 20.9842L169.788 20.9787L169.793 10.1415H176.971C177.33 10.1415 177.621 9.85043 177.621 9.49075V7.01963C177.621 6.65994 177.33 6.3689 176.971 6.3689L176.973 6.37164Z" fill="white"/>
</mask>
<g mask="url(#mask7_4213_473666)">
<path d="M173.429 20.3992L169.788 20.5804L169.794 26.1047L179.107 26.8488L181.839 22.2553L180.735 19.5233L175.565 18.9275L174.286 20.1191L173.429 20.3992Z" fill="url(#paint9_linear_4213_473666)"/>
</g>
<path d="M193.961 6.64078C193.84 6.47055 193.642 6.3717 193.434 6.3717H190.965C190.685 6.3717 190.438 6.55017 190.35 6.81376L186.891 17.0936L183.489 6.81651C183.401 6.55017 183.154 6.3717 182.871 6.3717H180.403C180.194 6.3717 179.996 6.47329 179.876 6.64078C179.755 6.80827 179.719 7.02792 179.785 7.22561L184.974 22.8898L179.785 38.5485C179.719 38.7461 179.752 38.9658 179.876 39.1333C179.999 39.3008 180.194 39.4024 180.403 39.4024H182.871C183.151 39.4024 183.401 39.2239 183.489 38.9576L186.902 28.6804L190.348 38.9603C190.436 39.2266 190.685 39.4051 190.963 39.4051H193.431C193.64 39.4051 193.837 39.3035 193.958 39.136C194.079 38.9658 194.112 38.7489 194.046 38.5512L188.81 22.8898L194.046 7.23111C194.112 7.03342 194.079 6.81376 193.958 6.64627L193.961 6.64078Z" fill="url(#paint10_linear_4213_473666)"/>
<mask id="mask8_4213_473666" style="mask-type:luminance" maskUnits="userSpaceOnUse" x="179" y="6" width="16" height="34">
<path d="M193.961 6.64078C193.84 6.47055 193.642 6.3717 193.434 6.3717H190.965C190.685 6.3717 190.438 6.55017 190.35 6.81376L186.891 17.0936L183.489 6.81651C183.401 6.55017 183.154 6.3717 182.871 6.3717H180.403C180.194 6.3717 179.996 6.47329 179.876 6.64078C179.755 6.80827 179.719 7.02792 179.785 7.22561L184.974 22.8898L179.785 38.5485C179.719 38.7461 179.752 38.9658 179.876 39.1333C179.999 39.3008 180.194 39.4024 180.403 39.4024H182.871C183.151 39.4024 183.401 39.2239 183.489 38.9576L186.902 28.6804L190.348 38.9603C190.436 39.2266 190.685 39.4051 190.963 39.4051H193.431C193.64 39.4051 193.837 39.3035 193.958 39.136C194.079 38.9658 194.112 38.7489 194.046 38.5512L188.81 22.8898L194.046 7.23111C194.112 7.03342 194.079 6.81376 193.958 6.64627L193.961 6.64078Z" fill="white"/>
</mask>
<g mask="url(#mask8_4213_473666)">
<path d="M192.124 26.7613L188.816 22.8844L186.905 28.6805L189.217 40.7479L194.919 40.4678L199.117 29.0567L194.683 26.3302L193.019 26.8711L192.124 26.7613Z" fill="url(#paint11_linear_4213_473666)"/>
</g>
<path d="M204.046 6.3717H198.052C197.693 6.3717 197.401 6.66275 197.401 7.02243V38.7544C197.401 39.1141 197.693 39.4051 198.052 39.4051H200.606C200.965 39.4051 201.256 39.1141 201.256 38.7544L201.262 24.7898H202.596C203.983 24.7898 205.002 24.6717 205.707 24.4274C208.585 23.4938 210.043 21.3769 210.043 18.1315V13.0135C210.043 8.61768 208.025 6.38269 204.043 6.3717H204.046ZM204.518 20.8278C204.189 20.9321 203.648 20.987 202.909 20.987L201.256 20.9815L201.262 10.1443H203.535C205.348 10.1443 206.193 11.0559 206.193 13.0163V18.1342C206.193 19.4659 205.65 20.3473 204.521 20.8305L204.518 20.8278Z" fill="url(#paint12_linear_4213_473666)"/>
<mask id="mask9_4213_473666" style="mask-type:luminance" maskUnits="userSpaceOnUse" x="197" y="6" width="14" height="34">
<path d="M204.046 6.3717H198.052C197.693 6.3717 197.401 6.66275 197.401 7.02243V38.7544C197.401 39.1141 197.693 39.4051 198.052 39.4051H200.606C200.965 39.4051 201.256 39.1141 201.256 38.7544L201.262 24.7898H202.596C203.983 24.7898 205.002 24.6717 205.707 24.4274C208.585 23.4938 210.043 21.3769 210.043 18.1315V13.0135C210.043 8.61768 208.025 6.38269 204.043 6.3717H204.046ZM204.518 20.8278C204.189 20.9321 203.648 20.987 202.909 20.987L201.256 20.9815L201.262 10.1443H203.535C205.348 10.1443 206.193 11.0559 206.193 13.0163V18.1342C206.193 19.4659 205.65 20.3473 204.521 20.8305L204.518 20.8278Z" fill="white"/>
</mask>
<g mask="url(#mask9_4213_473666)">
<path d="M204.905 19.8504L201.256 20.9789L201.262 24.7899L210.583 26.3L211.558 21.6351L211.792 6.67932L206.322 4.99622L203.939 15.0921L204.905 19.8504Z" fill="url(#paint13_linear_4213_473666)"/>
</g>
<path d="M224.567 6.37164H214.18C213.821 6.37164 213.53 6.66269 213.53 7.02237V38.7543C213.53 39.114 213.821 39.405 214.18 39.405H224.567C224.927 39.405 225.218 39.114 225.218 38.7543V36.2832C225.218 35.9235 224.927 35.6325 224.567 35.6325L217.382 35.627L217.387 24.7897H223.48C223.84 24.7897 224.131 24.4987 224.131 24.139V21.6349C224.131 21.2753 223.84 20.9842 223.48 20.9842L217.382 20.9787L217.387 10.1415H224.564C224.924 10.1415 225.215 9.85043 225.215 9.49075V7.01963C225.215 6.65994 224.924 6.3689 224.564 6.3689L224.567 6.37164Z" fill="url(#paint14_linear_4213_473666)"/>
<mask id="mask10_4213_473666" style="mask-type:luminance" maskUnits="userSpaceOnUse" x="213" y="6" width="13" height="34">
<path d="M224.567 6.37164H214.18C213.821 6.37164 213.53 6.66269 213.53 7.02237V38.7543C213.53 39.114 213.821 39.405 214.18 39.405H224.567C224.927 39.405 225.218 39.114 225.218 38.7543V36.2832C225.218 35.9235 224.927 35.6325 224.567 35.6325L217.382 35.627L217.387 24.7897H223.48C223.84 24.7897 224.131 24.4987 224.131 24.139V21.6349C224.131 21.2753 223.84 20.9842 223.48 20.9842L217.382 20.9787L217.387 10.1415H224.564C224.924 10.1415 225.215 9.85043 225.215 9.49075V7.01963C225.215 6.65994 224.924 6.3689 224.564 6.3689L224.567 6.37164Z" fill="white"/>
</mask>
<g mask="url(#mask10_4213_473666)">
<path d="M221.105 34.1278L217.382 35.6269L217.456 36.2721C217.67 38.1172 219.232 39.5093 221.091 39.5093H226.783L229.518 35.9838L228.414 33.2491L223.244 32.6533L221.964 33.8449L221.105 34.125V34.1278Z" fill="url(#paint15_linear_4213_473666)"/>
</g>
<path d="M237.335 23.7547L237.343 23.7464C239.998 22.6674 241.346 20.7783 241.346 18.1315V13.0135C241.346 8.61768 239.328 6.38269 235.347 6.3717H229.356C228.996 6.3717 228.705 6.66275 228.705 7.02243V38.7544C228.705 39.1141 228.996 39.4051 229.356 39.4051H231.909C232.269 39.4051 232.56 39.1141 232.56 38.7544L232.566 24.4109L234.076 24.3313L238.408 38.9383C238.491 39.2129 238.746 39.4024 239.032 39.4024H241.879C242.09 39.4024 242.288 39.3008 242.409 39.1278C242.53 38.9576 242.563 38.7352 242.491 38.5375L237.332 23.7519L237.335 23.7547ZM232.566 10.1415H234.839C236.651 10.1415 237.497 11.0531 237.497 13.0135V18.1315C237.497 19.4632 236.953 20.3445 235.836 20.8223L235.822 20.8278C235.492 20.9321 234.952 20.987 234.213 20.987L232.56 20.9815L232.566 10.1443V10.1415Z" fill="url(#paint16_linear_4213_473666)"/>
<mask id="mask11_4213_473666" style="mask-type:luminance" maskUnits="userSpaceOnUse" x="228" y="6" width="15" height="34">
<path d="M237.335 23.7547L237.343 23.7464C239.998 22.6674 241.346 20.7783 241.346 18.1315V13.0135C241.346 8.61768 239.328 6.38269 235.347 6.3717H229.356C228.996 6.3717 228.705 6.66275 228.705 7.02243V38.7544C228.705 39.1141 228.996 39.4051 229.356 39.4051H231.909C232.269 39.4051 232.56 39.1141 232.56 38.7544L232.566 24.4109L234.076 24.3313L238.408 38.9383C238.491 39.2129 238.746 39.4024 239.032 39.4024H241.879C242.09 39.4024 242.288 39.3008 242.409 39.1278C242.53 38.9576 242.563 38.7352 242.491 38.5375L237.332 23.7519L237.335 23.7547ZM232.566 10.1415H234.839C236.651 10.1415 237.497 11.0531 237.497 13.0135V18.1315C237.497 19.4632 236.953 20.3445 235.836 20.8223L235.822 20.8278C235.492 20.9321 234.952 20.987 234.213 20.987L232.56 20.9815L232.566 10.1443V10.1415Z" fill="white"/>
</mask>
<g mask="url(#mask11_4213_473666)">
<path d="M237.335 23.755L237.137 23.8236C236.228 24.1339 235.275 24.3041 234.317 24.3261L234.076 24.3316L234.018 25.8252C234.232 27.6703 235.207 39.7349 237.063 39.7349L243.232 39.5949L246.077 25.5369L244.973 22.8022L239.803 22.2064L238.524 23.398L237.335 23.755Z" fill="url(#paint17_linear_4213_473666)"/>
</g>
<path d="M248.609 6.3717H246.058C245.699 6.3717 245.407 6.66304 245.407 7.02243V38.7544C245.407 39.1138 245.699 39.4051 246.058 39.4051H248.609C248.968 39.4051 249.259 39.1138 249.259 38.7544V7.02243C249.259 6.66304 248.968 6.3717 248.609 6.3717Z" fill="url(#paint18_linear_4213_473666)"/>
<mask id="mask12_4213_473666" style="mask-type:luminance" maskUnits="userSpaceOnUse" x="245" y="6" width="5" height="34">
<path d="M248.609 6.3717H246.058C245.699 6.3717 245.407 6.66304 245.407 7.02243V38.7544C245.407 39.1138 245.699 39.4051 246.058 39.4051H248.609C248.968 39.4051 249.259 39.1138 249.259 38.7544V7.02243C249.259 6.66304 248.968 6.3717 248.609 6.3717Z" fill="white"/>
</mask>
<g mask="url(#mask12_4213_473666)">
<path d="M244.224 39.9077L245.385 14.1943L245.459 14.8395C245.673 16.6846 247.483 18.0767 249.341 18.0767H254.786L257.521 14.5512L256.417 11.8165L251.247 11.2207L249.553 40.0916L244.226 39.9049L244.224 39.9077Z" fill="url(#paint19_linear_4213_473666)"/>
</g>
<path d="M264.69 6.37164H254.303C253.944 6.37164 253.652 6.66269 253.652 7.02237V38.7543C253.652 39.114 253.944 39.405 254.303 39.405H264.69C265.047 39.405 265.341 39.114 265.341 38.7543V36.2832C265.341 35.9235 265.05 35.6325 264.69 35.6325L257.505 35.627L257.51 24.7897H263.603C263.963 24.7897 264.254 24.4987 264.254 24.139V21.6349C264.254 21.2753 263.963 20.9842 263.603 20.9842L257.505 20.9787L257.51 10.1415H264.687C265.044 10.1415 265.338 9.85043 265.338 9.49075V7.01963C265.338 6.65994 265.047 6.3689 264.687 6.3689L264.69 6.37164Z" fill="url(#paint20_linear_4213_473666)"/>
<mask id="mask13_4213_473666" style="mask-type:luminance" maskUnits="userSpaceOnUse" x="253" y="6" width="13" height="34">
<path d="M264.69 6.37164H254.303C253.944 6.37164 253.652 6.66269 253.652 7.02237V38.7543C253.652 39.114 253.944 39.405 254.303 39.405H264.69C265.047 39.405 265.341 39.114 265.341 38.7543V36.2832C265.341 35.9235 265.05 35.6325 264.69 35.6325L257.505 35.627L257.51 24.7897H263.603C263.963 24.7897 264.254 24.4987 264.254 24.139V21.6349C264.254 21.2753 263.963 20.9842 263.603 20.9842L257.505 20.9787L257.51 10.1415H264.687C265.044 10.1415 265.338 9.85043 265.338 9.49075V7.01963C265.338 6.65994 265.047 6.3689 264.687 6.3689L264.69 6.37164Z" fill="white"/>
</mask>
<g mask="url(#mask13_4213_473666)">
<path d="M261.253 11.5884L257.508 10.1387L257.606 9.44127C257.821 7.59617 259.38 6.32766 261.239 6.32766L266.934 6.2041L269.668 9.72957L268.564 12.4643L263.394 13.0601L262.115 11.8685L261.255 11.5884H261.253Z" fill="url(#paint21_linear_4213_473666)"/>
</g>
<path d="M281.236 6.39373L279.045 6.43217C278.693 6.43766 278.405 6.72871 278.405 7.0829L278.391 30.1769L272.894 6.87423C272.826 6.58044 272.565 6.37451 272.263 6.37451H269.476C269.116 6.37451 268.825 6.66556 268.825 7.02524V38.7572C268.825 39.1169 269.116 39.4079 269.476 39.4079H271.848C272.208 39.4079 272.499 39.1169 272.499 38.7572L272.513 16.2013L277.828 38.9054C277.897 39.202 278.158 39.4079 278.46 39.4079H281.244C281.604 39.4079 281.895 39.1169 281.895 38.7572V7.04171C281.895 6.86599 281.826 6.70125 281.7 6.57769C281.573 6.45414 281.409 6.39373 281.233 6.39099L281.236 6.39373Z" fill="url(#paint22_linear_4213_473666)"/>
<mask id="mask14_4213_473666" style="mask-type:luminance" maskUnits="userSpaceOnUse" x="268" y="6" width="14" height="34">
<path d="M281.236 6.39373L279.045 6.43217C278.693 6.43766 278.405 6.72871 278.405 7.0829L278.391 30.1769L272.894 6.87423C272.826 6.58044 272.565 6.37451 272.263 6.37451H269.476C269.116 6.37451 268.825 6.66556 268.825 7.02524V38.7572C268.825 39.1169 269.116 39.4079 269.476 39.4079H271.848C272.208 39.4079 272.499 39.1169 272.499 38.7572L272.513 16.2013L277.828 38.9054C277.897 39.202 278.158 39.4079 278.46 39.4079H281.244C281.604 39.4079 281.895 39.1169 281.895 38.7572V7.04171C281.895 6.86599 281.826 6.70125 281.7 6.57769C281.573 6.45414 281.409 6.39373 281.233 6.39099L281.236 6.39373Z" fill="white"/>
</mask>
<g mask="url(#mask14_4213_473666)">
<path d="M275.865 34.205L272.504 16.2701L272.512 16.1988C272.512 13.8018 271.812 5.78985 272.897 6.8744L280.305 9.74364L283.973 12.2834L283.742 15.224L283.16 41.0335L278.347 41.6403L275.87 34.2105L275.865 34.205Z" fill="url(#paint23_linear_4213_473666)"/>
</g>
<path d="M292.402 5.82812C288.072 5.82812 285.876 8.05762 285.876 12.4535V33.3235C285.876 37.7303 288.072 39.9653 292.402 39.9653C296.743 39.9543 298.945 37.7193 298.945 33.3235V29.9161C298.945 29.5564 298.654 29.2653 298.295 29.2653H295.741C295.381 29.2653 295.09 29.5564 295.09 29.9161V33.3235C295.09 35.2592 294.236 36.1625 292.4 36.1625C290.563 36.1625 289.725 35.2619 289.725 33.3235V12.4535C289.725 10.5178 290.571 9.61443 292.383 9.61443H292.413C294.239 9.62542 295.088 10.526 295.088 12.4535V15.8609C295.088 16.2206 295.379 16.5116 295.738 16.5116H298.292C298.652 16.5116 298.943 16.2206 298.943 15.8609V12.4535C298.943 8.05762 296.741 5.82812 292.4 5.82812H292.402Z" fill="url(#paint24_linear_4213_473666)"/>
<mask id="mask15_4213_473666" style="mask-type:luminance" maskUnits="userSpaceOnUse" x="285" y="5" width="14" height="35">
<path d="M292.402 5.82812C288.072 5.82812 285.876 8.05762 285.876 12.4535V33.3235C285.876 37.7303 288.072 39.9653 292.402 39.9653C296.743 39.9543 298.945 37.7193 298.945 33.3235V29.9161C298.945 29.5564 298.654 29.2653 298.295 29.2653H295.741C295.381 29.2653 295.09 29.5564 295.09 29.9161V33.3235C295.09 35.2592 294.236 36.1625 292.4 36.1625C290.563 36.1625 289.725 35.2619 289.725 33.3235V12.4535C289.725 10.5178 290.571 9.61443 292.383 9.61443H292.413C294.239 9.62542 295.088 10.526 295.088 12.4535V15.8609C295.088 16.2206 295.379 16.5116 295.738 16.5116H298.292C298.652 16.5116 298.943 16.2206 298.943 15.8609V12.4535C298.943 8.05762 296.741 5.82812 292.4 5.82812H292.402Z" fill="white"/>
</mask>
<g mask="url(#mask15_4213_473666)">
<path d="M301.71 21.3988L289.731 13.1096L289.783 11.6791C289.997 9.83395 291.946 9.10909 293.803 9.10909C295.826 9.10909 297.718 10.1058 298.866 11.7724L300.214 13.7328L300.878 15.3665L304.807 -3.79565L307.317 22.8842L301.707 21.3961L301.71 21.3988Z" fill="url(#paint25_linear_4213_473666)"/>
</g>
<path d="M306.622 10.1415H313.799C314.159 10.1415 314.45 9.85043 314.45 9.49075V7.01963C314.45 6.65994 314.159 6.3689 313.799 6.3689H303.412C303.053 6.3689 302.762 6.65994 302.762 7.01963V38.7516C302.762 39.1113 303.053 39.4023 303.412 39.4023H313.799C314.159 39.4023 314.45 39.1113 314.45 38.7516V36.2804C314.45 35.9208 314.159 35.6297 313.799 35.6297L306.614 35.6242L306.619 24.787H312.712C313.072 24.787 313.363 24.4959 313.363 24.1363V21.6322C313.363 21.2725 313.072 20.9815 312.712 20.9815L306.614 20.976V10.147C306.614 10.147 306.617 10.1415 306.619 10.1415H306.622Z" fill="url(#paint26_linear_4213_473666)"/>
<mask id="mask16_4213_473666" style="mask-type:luminance" maskUnits="userSpaceOnUse" x="302" y="6" width="13" height="34">
<path d="M306.622 10.1415H313.799C314.159 10.1415 314.45 9.85043 314.45 9.49075V7.01963C314.45 6.65994 314.159 6.3689 313.799 6.3689H303.412C303.053 6.3689 302.762 6.65994 302.762 7.01963V38.7516C302.762 39.1113 303.053 39.4023 303.412 39.4023H313.799C314.159 39.4023 314.45 39.1113 314.45 38.7516V36.2804C314.45 35.9208 314.159 35.6297 313.799 35.6297L306.614 35.6242L306.619 24.787H312.712C313.072 24.787 313.363 24.4959 313.363 24.1363V21.6322C313.363 21.2725 313.072 20.9815 312.712 20.9815L306.614 20.976V10.147C306.614 10.147 306.617 10.1415 306.619 10.1415H306.622Z" fill="white"/>
</mask>
<g mask="url(#mask16_4213_473666)">
<path d="M308.146 17.228L306.696 20.9732L305.999 20.8743C304.154 20.6602 302.885 19.1006 302.885 17.2418L302.762 11.5472L306.287 8.8125L309.022 9.91627L309.618 15.0864L308.426 16.3659L308.146 17.2253V17.228Z" fill="url(#paint27_linear_4213_473666)"/>
</g>
<path d="M42.9014 40.6409C42.7202 40.6354 42.539 40.6272 42.3578 40.6272C33.5386 40.6272 25.8809 45.6353 22.0067 52.9883C22.1879 52.9938 22.3691 53.002 22.5504 53.002C31.3695 53.002 39.03 47.9939 42.9014 40.6409Z" fill="#4BB066"/>
<path d="M21.9902 52.9882C19.8349 42.615 10.8455 34.7843 0 34.5234C2.15537 44.8994 11.1448 52.7246 21.9902 52.9882Z" fill="#4BB066"/>
<path d="M33.1212 17.2887C30.0872 16.0395 26.6881 17.1048 24.843 19.6665L22.2208 18.2607C22.2208 18.2607 22.2236 18.2525 22.2263 18.247C22.7864 16.8577 22.7782 15.3805 22.3114 14.0735L25.0406 12.7611C25.5047 13.4146 26.1444 13.95 26.9352 14.274C29.1647 15.191 31.7072 14.1092 32.6133 11.855C33.5193 9.60356 32.4485 7.03359 30.219 6.11653C28.6183 5.45757 26.8555 5.83647 25.6557 6.93475L23.9369 5.5976C24.022 5.44933 24.0989 5.29832 24.1648 5.13632C24.9336 3.22807 24.0247 1.05348 22.1385 0.276449C20.2494 -0.500581 18.0968 0.41648 17.328 2.32473C16.5592 4.23299 17.468 6.40758 19.3543 7.18461C20.6997 7.73649 22.1741 7.42897 23.1928 6.5174L24.832 7.9534C24.7249 8.13736 24.6233 8.32956 24.5409 8.53549C24.1483 9.51021 24.1263 10.5453 24.4119 11.4816L21.7266 12.8764C21.1061 11.9044 20.1945 11.1082 19.0523 10.6387C16.0979 9.42235 12.7262 10.8583 11.5236 13.8457C10.321 16.8302 11.7405 20.2376 14.6976 21.454C15.2797 21.6928 15.8783 21.8274 16.4741 21.8713L16.6251 23.5105C15.4033 23.7164 14.3132 24.5346 13.8108 25.7784C13.042 27.6839 13.9508 29.8585 15.8371 30.6355C17.7234 31.4126 19.876 30.4955 20.6448 28.59C21.4136 26.6845 20.5047 24.5099 18.6185 23.7329C18.2835 23.5956 17.943 23.5132 17.5998 23.4775L17.6465 21.8329C19.1676 21.6242 20.5734 20.8115 21.5097 19.5375L24.0549 21.0833C24.044 21.1107 24.0302 21.1382 24.0192 21.1657C22.7837 24.2326 23.838 27.6675 26.375 29.5318L24.8347 32.4752C22.2785 31.4345 19.3681 32.6783 18.3302 35.2593C17.2868 37.8457 18.5196 40.7974 21.0786 41.8517C23.6404 42.906 26.5618 41.6622 27.6024 39.0731C28.4728 36.9122 27.7561 34.4987 26.0071 33.1479L27.7287 30.3088C27.7699 30.328 27.811 30.3473 27.855 30.3637C31.4271 31.8327 35.5045 30.0974 36.9569 26.4868C38.4122 22.8762 36.6934 18.7604 33.1212 17.2887Z" fill="#FFCC00"/>
<mask id="mask17_4213_473666" style="mask-type:luminance" maskUnits="userSpaceOnUse" x="11" y="0" width="27" height="43">
<path d="M33.1212 17.2887C30.0872 16.0395 26.6881 17.1048 24.843 19.6665L22.2208 18.2607C22.2208 18.2607 22.2236 18.2525 22.2263 18.247C22.7864 16.8577 22.7782 15.3805 22.3114 14.0735L25.0406 12.7611C25.5047 13.4146 26.1444 13.95 26.9352 14.274C29.1647 15.191 31.7072 14.1092 32.6133 11.855C33.5193 9.60356 32.4485 7.03359 30.219 6.11653C28.6183 5.45757 26.8555 5.83647 25.6557 6.93475L23.9369 5.5976C24.022 5.44933 24.0989 5.29832 24.1648 5.13632C24.9336 3.22807 24.0247 1.05348 22.1385 0.276449C20.2494 -0.500581 18.0968 0.41648 17.328 2.32473C16.5592 4.23299 17.468 6.40758 19.3543 7.18461C20.6997 7.73649 22.1741 7.42897 23.1928 6.5174L24.832 7.9534C24.7249 8.13736 24.6233 8.32956 24.5409 8.53549C24.1483 9.51021 24.1263 10.5453 24.4119 11.4816L21.7266 12.8764C21.1061 11.9044 20.1945 11.1082 19.0523 10.6387C16.0979 9.42235 12.7262 10.8583 11.5236 13.8457C10.321 16.8302 11.7405 20.2376 14.6976 21.454C15.2797 21.6928 15.8783 21.8274 16.4741 21.8713L16.6251 23.5105C15.4033 23.7164 14.3132 24.5346 13.8108 25.7784C13.042 27.6839 13.9508 29.8585 15.8371 30.6355C17.7234 31.4126 19.876 30.4955 20.6448 28.59C21.4136 26.6845 20.5047 24.5099 18.6185 23.7329C18.2835 23.5956 17.943 23.5132 17.5998 23.4775L17.6465 21.8329C19.1676 21.6242 20.5734 20.8115 21.5097 19.5375L24.0549 21.0833C24.044 21.1107 24.0302 21.1382 24.0192 21.1657C22.7837 24.2326 23.838 27.6675 26.375 29.5318L24.8347 32.4752C22.2785 31.4345 19.3681 32.6783 18.3302 35.2593C17.2868 37.8457 18.5196 40.7974 21.0786 41.8517C23.6404 42.906 26.5618 41.6622 27.6024 39.0731C28.4728 36.9122 27.7561 34.4987 26.0071 33.1479L27.7287 30.3088C27.7699 30.328 27.811 30.3473 27.855 30.3637C31.4271 31.8327 35.5045 30.0974 36.9569 26.4868C38.4122 22.8762 36.6934 18.7604 33.1212 17.2887Z" fill="white"/>
</mask>
<g mask="url(#mask17_4213_473666)">
<path d="M27.9757 31.2589L26.666 32.9173L26.007 33.1479C25.5704 32.8761 25.2108 32.6839 24.8346 32.4725L25.4441 29.4275L26.3749 29.5318C26.3749 29.5318 26.8801 29.9437 27.7286 30.3089C28.577 30.674 27.9757 31.2616 27.9757 31.2616V31.2589Z" fill="url(#paint28_linear_4213_473666)"/>
<path d="M22.9539 42.2224C25.7138 42.2224 27.9511 39.9568 27.9511 37.1621C27.9511 34.3674 25.7138 32.1018 22.9539 32.1018C20.1941 32.1018 17.9568 34.3674 17.9568 37.1621C17.9568 39.9568 20.1941 42.2224 22.9539 42.2224Z" fill="url(#paint29_linear_4213_473666)"/>
<path d="M33.1211 17.2887C30.0871 16.0395 26.6879 17.1048 24.8428 19.6665L22.2207 18.2607C22.2207 18.2607 22.2234 18.2525 22.2262 18.247C22.7863 16.8577 22.7781 15.3805 22.3113 14.0735L25.0405 12.7611C25.5045 13.4146 26.1443 13.95 26.935 14.274C29.1645 15.191 31.7071 14.1092 32.6131 11.855C33.5192 9.60356 32.4484 7.03359 30.2189 6.11653C28.6181 5.45757 26.8554 5.83647 25.6555 6.93475L23.9367 5.5976C24.0219 5.44933 24.0988 5.29832 24.1647 5.13632C24.9334 3.22807 24.0246 1.05348 22.1383 0.276449C20.2493 -0.500581 18.0967 0.41648 17.3279 2.32473C16.5591 4.23299 17.4679 6.40758 19.3542 7.18461C20.6996 7.73649 22.174 7.42897 23.1927 6.5174L24.8318 7.9534C24.7248 8.13736 24.6232 8.32956 24.5408 8.53549C24.1482 9.51021 24.1262 10.5453 24.4118 11.4816L21.7265 12.8764C21.106 11.9044 20.1944 11.1082 19.0522 10.6387C16.0978 9.42235 12.7261 10.8583 11.5235 13.8457C10.3209 16.8302 11.7404 20.2376 14.6975 21.454C15.2796 21.6928 15.8782 21.8274 16.474 21.8713L16.625 23.5105C15.4031 23.7164 14.3131 24.5346 13.8106 25.7784C13.0418 27.6839 13.9507 29.8585 15.837 30.6355C17.7232 31.4126 19.8759 30.4955 20.6447 28.59C21.4135 26.6845 20.5046 24.5099 18.6183 23.7329C18.2834 23.5956 17.9429 23.5132 17.5997 23.4775L17.6464 21.8329C19.1675 21.6242 20.5733 20.8115 21.5096 19.5375L24.0548 21.0833C24.0438 21.1107 24.0301 21.1382 24.0191 21.1657C22.7836 24.2326 23.8379 27.6675 26.3749 29.5318L24.8346 32.4752C22.2783 31.4345 19.3679 32.6783 18.3301 35.2593C17.2867 37.8457 18.5195 40.7974 21.0785 41.8517C23.6402 42.906 26.5616 41.6622 27.6023 39.0731C28.4726 36.9122 27.756 34.4987 26.007 33.1479L27.7286 30.3088C27.7697 30.328 27.8109 30.3473 27.8548 30.3637C31.427 31.8327 35.5043 30.0974 36.9568 26.4868C38.412 22.8762 36.6932 18.7604 33.1211 17.2887Z" fill="#FFCC00"/>
<mask id="mask18_4213_473666" style="mask-type:luminance" maskUnits="userSpaceOnUse" x="11" y="0" width="27" height="43">
<path d="M33.1211 17.2887C30.0871 16.0395 26.6879 17.1048 24.8428 19.6665L22.2207 18.2607C22.2207 18.2607 22.2234 18.2525 22.2262 18.247C22.7863 16.8577 22.7781 15.3805 22.3113 14.0735L25.0405 12.7611C25.5045 13.4146 26.1443 13.95 26.935 14.274C29.1645 15.191 31.7071 14.1092 32.6131 11.855C33.5192 9.60356 32.4484 7.03359 30.2189 6.11653C28.6181 5.45757 26.8554 5.83647 25.6555 6.93475L23.9367 5.5976C24.0219 5.44933 24.0988 5.29832 24.1647 5.13632C24.9334 3.22807 24.0246 1.05348 22.1383 0.276449C20.2493 -0.500581 18.0967 0.41648 17.3279 2.32473C16.5591 4.23299 17.4679 6.40758 19.3542 7.18461C20.6996 7.73649 22.174 7.42897 23.1927 6.5174L24.8318 7.9534C24.7248 8.13736 24.6232 8.32956 24.5408 8.53549C24.1482 9.51021 24.1262 10.5453 24.4118 11.4816L21.7265 12.8764C21.106 11.9044 20.1944 11.1082 19.0522 10.6387C16.0978 9.42235 12.7261 10.8583 11.5235 13.8457C10.3209 16.8302 11.7404 20.2376 14.6975 21.454C15.2796 21.6928 15.8782 21.8274 16.474 21.8713L16.625 23.5105C15.4031 23.7164 14.3131 24.5346 13.8106 25.7784C13.0418 27.6839 13.9507 29.8585 15.837 30.6355C17.7232 31.4126 19.8759 30.4955 20.6447 28.59C21.4135 26.6845 20.5046 24.5099 18.6183 23.7329C18.2834 23.5956 17.9429 23.5132 17.5997 23.4775L17.6464 21.8329C19.1675 21.6242 20.5733 20.8115 21.5096 19.5375L24.0548 21.0833C24.0438 21.1107 24.0301 21.1382 24.0191 21.1657C22.7836 24.2326 23.8379 27.6675 26.3749 29.5318L24.8346 32.4752C22.2783 31.4345 19.3679 32.6783 18.3301 35.2593C17.2867 37.8457 18.5195 40.7974 21.0785 41.8517C23.6402 42.906 26.5616 41.6622 27.6023 39.0731C28.4726 36.9122 27.756 34.4987 26.007 33.1479L27.7286 30.3088C27.7697 30.328 27.8109 30.3473 27.8548 30.3637C31.427 31.8327 35.5043 30.0974 36.9568 26.4868C38.412 22.8762 36.6932 18.7604 33.1211 17.2887Z" fill="white"/>
</mask>
<g mask="url(#mask18_4213_473666)">
<path d="M27.9756 31.2589L26.6659 32.9173L26.0069 33.1479C25.5703 32.8761 25.2106 32.6839 24.8345 32.4725L25.444 29.4275L26.3748 29.5318C26.3748 29.5318 26.88 29.9437 27.7284 30.3089C28.5769 30.674 27.9756 31.2616 27.9756 31.2616V31.2589Z" fill="url(#paint30_radial_4213_473666)"/>
<path d="M23.1295 21.2618L21.4574 19.9686L21.2212 19.3124C21.4875 18.8758 21.677 18.5134 21.8857 18.1317L24.9389 18.7111L24.8428 19.6638C24.8428 19.6638 24.409 20.2267 24.052 21.0778C23.6951 21.929 23.1295 21.2591 23.1295 21.2591V21.2618Z" fill="url(#paint31_linear_4213_473666)"/>
<path d="M23.1292 21.2616L21.5065 19.5346C21.2374 19.3369 21.1413 18.9827 21.2704 18.6752L21.3226 18.5544C21.5889 18.1178 22.0337 18.1645 22.2231 18.2468L24.9359 18.7136L24.8398 19.6664C24.8398 19.6664 24.406 20.2292 24.049 21.0804C23.6921 21.9316 23.1265 21.2616 23.1265 21.2616H23.1292Z" fill="url(#paint32_linear_4213_473666)"/>
<path d="M24.6643 13.8016L22.6297 14.3728L22.3113 14.0735C22.1191 13.5518 21.9186 13.1949 21.7264 12.8791L23.6951 10.8308L24.4144 11.4843C24.4144 11.4843 24.5874 12.1433 25.0432 12.7638C25.5896 13.5079 24.6643 13.8044 24.6643 13.8044V13.8016Z" fill="url(#paint33_linear_4213_473666)"/>
<path d="M23.1295 21.2617L21.5068 19.5347C21.2377 19.3041 21.1443 18.9279 21.2706 18.5957L21.3036 18.5133C21.5699 18.0767 21.8857 18.1317 22.2261 18.247L24.9389 18.7137L24.8428 19.6665C24.8428 19.6665 24.409 20.2294 24.052 21.0805C23.6951 21.9317 23.1295 21.2617 23.1295 21.2617Z" fill="url(#paint34_radial_4213_473666)"/>
<path style="mix-blend-mode:multiply" d="M23.1295 21.2617L21.5068 19.5347C21.2377 19.3041 21.1443 18.9279 21.2706 18.5957L21.3036 18.5133C21.5699 18.0767 21.8857 18.1317 22.2261 18.247L24.9389 18.7137L24.8428 19.6665C24.8428 19.6665 24.409 20.2294 24.052 21.0805C23.6951 21.9317 23.1295 21.2617 23.1295 21.2617Z" fill="url(#paint35_radial_4213_473666)"/>
<path d="M17.9236 22.5248L17.8111 23.3732L17.4816 23.4638C17.2097 23.4282 16.5206 23.3403 16.2927 23.3238L15.9824 22.0306L16.4657 21.8686C16.4657 21.8686 17.0944 21.8961 17.6436 21.8274C18.1323 21.767 17.9209 22.5221 17.9209 22.5221L17.9236 22.5248Z" fill="url(#paint36_linear_4213_473666)"/>
<path d="M22.9538 42.2224C25.7137 42.2224 27.951 39.9568 27.951 37.1621C27.951 34.3674 25.7137 32.1018 22.9538 32.1018C20.194 32.1018 17.9567 34.3674 17.9567 37.1621C17.9567 39.9568 20.194 42.2224 22.9538 42.2224Z" fill="url(#paint37_linear_4213_473666)"/>
</g>
<path d="M42.9013 40.6409C42.7201 40.6354 42.5389 40.6272 42.3576 40.6272C33.5385 40.6272 25.8808 45.6353 22.0066 52.9883C22.1878 52.9938 22.369 53.002 22.5502 53.002C31.3694 53.002 39.0299 47.9939 42.9013 40.6409Z" fill="#4BB066"/>
<path d="M21.9901 52.9882C19.8347 42.615 10.8454 34.7843 -0.00012207 34.5234C2.15525 44.8994 11.1446 52.7246 21.9901 52.9882Z" fill="#4BB066"/>
<path d="M22.9539 42.2224C25.7138 42.2224 27.9511 39.9568 27.9511 37.1621C27.9511 34.3674 25.7138 32.1018 22.9539 32.1018C20.1941 32.1018 17.9568 34.3674 17.9568 37.1621C17.9568 39.9568 20.1941 42.2224 22.9539 42.2224Z" fill="url(#paint38_radial_4213_473666)"/>
<path d="M30.4881 30.8854C34.3458 30.8854 37.4731 27.7249 37.4731 23.8263C37.4731 19.9276 34.3458 16.7671 30.4881 16.7671C26.6303 16.7671 23.5031 19.9276 23.5031 23.8263C23.5031 27.7249 26.6303 30.8854 30.4881 30.8854Z" fill="url(#paint39_linear_4213_473666)"/>
<path d="M30.4881 30.8854C34.3458 30.8854 37.4731 27.7249 37.4731 23.8263C37.4731 19.9276 34.3458 16.7671 30.4881 16.7671C26.6303 16.7671 23.5031 19.9276 23.5031 23.8263C23.5031 27.7249 26.6303 30.8854 30.4881 30.8854Z" fill="url(#paint40_radial_4213_473666)"/>
<path d="M28.5797 14.5924C30.9862 14.5924 32.9371 12.623 32.9371 10.1938C32.9371 7.76448 30.9862 5.79517 28.5797 5.79517C26.1732 5.79517 24.2223 7.76448 24.2223 10.1938C24.2223 12.623 26.1732 14.5924 28.5797 14.5924Z" fill="url(#paint41_linear_4213_473666)"/>
<path d="M28.5797 14.5924C30.9862 14.5924 32.9371 12.623 32.9371 10.1938C32.9371 7.76448 30.9862 5.79517 28.5797 5.79517C26.1732 5.79517 24.2223 7.76448 24.2223 10.1938C24.2223 12.623 26.1732 14.5924 28.5797 14.5924Z" fill="url(#paint42_radial_4213_473666)"/>
<path d="M20.7463 7.46755C22.7874 7.46755 24.4421 5.79695 24.4421 3.73615C24.4421 1.67536 22.7874 0.00476074 20.7463 0.00476074C18.7053 0.00476074 17.0507 1.67536 17.0507 3.73615C17.0507 5.79695 18.7053 7.46755 20.7463 7.46755Z" fill="url(#paint43_linear_4213_473666)"/>
<path d="M20.7463 7.46755C22.7874 7.46755 24.4421 5.79695 24.4421 3.73615C24.4421 1.67536 22.7874 0.00476074 20.7463 0.00476074C18.7053 0.00476074 17.0507 1.67536 17.0507 3.73615C17.0507 5.79695 18.7053 7.46755 20.7463 7.46755Z" fill="url(#paint44_radial_4213_473666)"/>
<path d="M17.2237 30.9155C19.2617 30.9155 20.9139 29.2462 20.9139 27.1869C20.9139 25.1276 19.2617 23.4583 17.2237 23.4583C15.1856 23.4583 13.5334 25.1276 13.5334 27.1869C13.5334 29.2462 15.1856 30.9155 17.2237 30.9155Z" fill="url(#paint45_linear_4213_473666)"/>
<path d="M17.2237 30.9155C19.2617 30.9155 20.9139 29.2462 20.9139 27.1869C20.9139 25.1276 19.2617 23.4583 17.2237 23.4583C15.1856 23.4583 13.5334 25.1276 13.5334 27.1869C13.5334 29.2462 15.1856 30.9155 17.2237 30.9155Z" fill="url(#paint46_radial_4213_473666)"/>
<path d="M21.9515 18.2059C22.0531 18.2059 22.1437 18.2224 22.2233 18.2526C22.5006 17.5716 22.6516 16.8248 22.6516 16.045C22.6516 12.8216 20.0652 10.2104 16.8719 10.2104C13.6787 10.2104 11.0923 12.8243 11.0923 16.045C11.0923 19.2657 13.6787 21.8796 16.8719 21.8796C18.761 21.8796 20.4359 20.9653 21.4902 19.5513C21.0207 19.1696 21.1744 18.2059 21.9487 18.2059H21.9515Z" fill="url(#paint47_linear_4213_473666)"/>
<path d="M21.9518 18.2005C22.0534 18.2005 22.1467 18.217 22.2263 18.25C22.5009 17.569 22.6547 16.8249 22.6547 16.0452C22.6547 12.8217 20.0682 10.2106 16.875 10.2106C13.6818 10.2106 11.0953 12.8245 11.0953 16.0452C11.0953 19.2659 13.6818 21.8798 16.875 21.8798C18.764 21.8798 20.4416 20.9627 21.496 19.5487C21.0237 19.1698 21.1747 18.2005 21.9518 18.2005Z" fill="url(#paint48_radial_4213_473666)"/>
<path d="M21.7265 12.8791C21.7265 12.8791 22.1164 13.5079 22.3113 14.0735L25.0405 12.7611L25.1833 12.4316C25.37 12.0032 25.0707 11.5173 24.604 11.4925L24.409 11.4816L21.7238 12.8764L21.7265 12.8791Z" fill="url(#paint49_linear_4213_473666)"/>
<path d="M21.5838 20.4078L21.5097 19.5347C21.5097 19.5347 21.4246 19.51 21.323 19.337C21.2324 19.1421 21.2104 18.9224 21.2598 18.7137L21.3065 18.5133C20.5734 18.6094 13.7119 20.0838 13.7531 20.9515C13.8053 22.0196 17.2731 21.863 17.2731 21.863L21.2516 21.4759L21.5866 20.4051L21.5838 20.4078Z" fill="url(#paint50_radial_4213_473666)"/>
</g>
<path d="M25.6582 6.93737C25.6582 6.93737 25.1887 7.34923 24.8345 7.95602L23.1954 6.52003L23.1871 6.41294C23.1542 5.97363 23.5001 5.60022 23.9394 5.60022L25.6582 6.93737Z" fill="url(#paint51_linear_4213_473666)"/>
<path d="M25.6582 6.93737C25.6582 6.93737 25.1887 7.34923 24.8345 7.95602L23.1954 6.52003L23.1871 6.41294C23.1542 5.97363 23.5001 5.60022 23.9394 5.60022L25.6582 6.93737Z" fill="url(#paint52_radial_4213_473666)"/>
<path d="M25.6582 6.93737C25.6582 6.93737 25.1887 7.34923 24.8345 7.95602L23.1954 6.52003L23.1871 6.41294C23.1542 5.97363 23.5001 5.60022 23.9394 5.60022L25.6582 6.93737Z" fill="url(#paint53_radial_4213_473666)"/>
<path style="mix-blend-mode:multiply" d="M24.9638 12.8106L25.0407 12.7612C25.3098 12.5305 25.2714 11.888 25.1423 11.5558L25.1094 11.4734C24.843 11.0369 24.7497 11.3691 24.412 11.4817L21.7267 12.8765C21.7267 12.8765 21.9546 13.2197 22.3115 14.0709C22.7316 13.8759 24.9666 12.8079 24.9666 12.8079L24.9638 12.8106Z" fill="url(#paint54_radial_4213_473666)"/>
<path d="M25.123 12.9039C25.3921 12.6732 25.4855 12.2971 25.3592 11.9648L25.3262 11.8825C25.0599 11.4459 24.7524 11.369 24.4119 11.4816L22.6107 12.3987L21.7239 12.8764C21.7239 12.8764 21.9518 13.2196 22.3087 14.0708C22.6657 14.9219 25.1203 12.9011 25.1203 12.9011L25.123 12.9039Z" fill="url(#paint55_radial_4213_473666)"/>
<path d="M21.9902 52.9882C19.8349 42.615 10.8455 34.7843 0 34.5234C2.15537 44.8994 11.1448 52.7246 21.9902 52.9882Z" fill="#4BB066"/>
<defs>
<linearGradient id="paint0_linear_4213_473666" x1="44.8952" y1="22.9283" x2="30.6286" y2="23.137" gradientUnits="userSpaceOnUse">
<stop stop-opacity="0"/>
<stop offset="1"/>
</linearGradient>
<linearGradient id="paint1_linear_4213_473666" x1="62.6238" y1="36.7775" x2="48.0497" y2="36.9917" gradientUnits="userSpaceOnUse">
<stop stop-opacity="0"/>
<stop offset="1"/>
</linearGradient>
<linearGradient id="paint2_linear_4213_473666" x1="80.904" y1="30.8298" x2="72.8223" y2="13.1295" gradientUnits="userSpaceOnUse">
<stop stop-opacity="0"/>
<stop offset="1"/>
</linearGradient>
<linearGradient id="paint3_linear_4213_473666" x1="96.6458" y1="21.6322" x2="82.0717" y2="21.8464" gradientUnits="userSpaceOnUse">
<stop stop-opacity="0"/>
<stop offset="1"/>
</linearGradient>
<linearGradient id="paint4_linear_4213_473666" x1="131.55" y1="30.5504" x2="123.373" y2="12.6462" gradientUnits="userSpaceOnUse">
<stop stop-opacity="0"/>
<stop offset="1"/>
</linearGradient>
<linearGradient id="paint5_linear_4213_473666" x1="162.549" y1="24.2567" x2="148.638" y2="-6.2019" gradientUnits="userSpaceOnUse">
<stop stop-opacity="0"/>
<stop offset="1"/>
</linearGradient>
<linearGradient id="paint6_linear_4213_473666" x1="149.358" y1="26.9146" x2="123.84" y2="-2.52939" gradientUnits="userSpaceOnUse">
<stop stop-opacity="0"/>
<stop offset="1"/>
</linearGradient>
<linearGradient id="paint7_linear_4213_473666" x1="109.476" y1="32.3322" x2="93.8945" y2="32.5628" gradientUnits="userSpaceOnUse">
<stop stop-opacity="0"/>
<stop offset="1"/>
</linearGradient>
<linearGradient id="paint8_linear_4213_473666" x1="171.581" y1="46.4862" x2="171.792" y2="21.4592" gradientUnits="userSpaceOnUse">
<stop stop-color="#FF8E00"/>
<stop offset="0.42" stop-color="#FFAF00"/>
<stop offset="0.77" stop-color="#FFC400"/>
<stop offset="1" stop-color="#FFCC00"/>
</linearGradient>
<linearGradient id="paint9_linear_4213_473666" x1="173.517" y1="22.8593" x2="154.217" y2="22.7193" gradientUnits="userSpaceOnUse">
<stop stop-color="#870000" stop-opacity="0"/>
<stop offset="0.56" stop-color="#870000"/>
</linearGradient>
<linearGradient id="paint10_linear_4213_473666" x1="186.721" y1="46.6125" x2="186.929" y2="21.5856" gradientUnits="userSpaceOnUse">
<stop stop-color="#FF8E00"/>
<stop offset="0.42" stop-color="#FFAF00"/>
<stop offset="0.77" stop-color="#FFC400"/>
<stop offset="1" stop-color="#FFCC00"/>
</linearGradient>
<linearGradient id="paint11_linear_4213_473666" x1="189.047" y1="31.8625" x2="170.171" y2="22.8896" gradientUnits="userSpaceOnUse">
<stop stop-color="#870000" stop-opacity="0"/>
<stop offset="0.56" stop-color="#870000"/>
</linearGradient>
<linearGradient id="paint12_linear_4213_473666" x1="203.437" y1="46.7526" x2="203.645" y2="21.7256" gradientUnits="userSpaceOnUse">
<stop stop-color="#FF8E00"/>
<stop offset="0.42" stop-color="#FFAF00"/>
<stop offset="0.77" stop-color="#FFC400"/>
<stop offset="1" stop-color="#FFCC00"/>
</linearGradient>
<linearGradient id="paint13_linear_4213_473666" x1="204.532" y1="15.6193" x2="187.841" y2="15.4985" gradientUnits="userSpaceOnUse">
<stop stop-color="#870000" stop-opacity="0"/>
<stop offset="0.56" stop-color="#870000"/>
</linearGradient>
<linearGradient id="paint14_linear_4213_473666" x1="219.172" y1="46.8843" x2="219.383" y2="21.8573" gradientUnits="userSpaceOnUse">
<stop stop-color="#FF8E00"/>
<stop offset="0.42" stop-color="#FFAF00"/>
<stop offset="0.77" stop-color="#FFC400"/>
<stop offset="1" stop-color="#FFCC00"/>
</linearGradient>
<linearGradient id="paint15_linear_4213_473666" x1="221.149" y1="36.0745" x2="201.729" y2="35.9344" gradientUnits="userSpaceOnUse">
<stop stop-color="#870000" stop-opacity="0"/>
<stop offset="0.56" stop-color="#870000"/>
</linearGradient>
<linearGradient id="paint16_linear_4213_473666" x1="235.413" y1="47.0217" x2="235.624" y2="21.9947" gradientUnits="userSpaceOnUse">
<stop stop-color="#FF8E00"/>
<stop offset="0.42" stop-color="#FFAF00"/>
<stop offset="0.77" stop-color="#FFC400"/>
<stop offset="1" stop-color="#FFCC00"/>
</linearGradient>
<linearGradient id="paint17_linear_4213_473666" x1="237.722" y1="30.9624" x2="218.431" y2="30.8224" gradientUnits="userSpaceOnUse">
<stop stop-color="#870000" stop-opacity="0"/>
<stop offset="0.56" stop-color="#870000"/>
</linearGradient>
<linearGradient id="paint18_linear_4213_473666" x1="247.132" y1="47.1205" x2="247.343" y2="22.0935" gradientUnits="userSpaceOnUse">
<stop stop-color="#FF8E00"/>
<stop offset="0.42" stop-color="#FFAF00"/>
<stop offset="0.77" stop-color="#FFC400"/>
<stop offset="1" stop-color="#FFCC00"/>
</linearGradient>
<linearGradient id="paint19_linear_4213_473666" x1="248.4" y1="25.6438" x2="227.42" y2="25.4928" gradientUnits="userSpaceOnUse">
<stop stop-color="#870000" stop-opacity="0"/>
<stop offset="0.56" stop-color="#870000"/>
</linearGradient>
<linearGradient id="paint20_linear_4213_473666" x1="259.292" y1="47.222" x2="259.504" y2="22.1951" gradientUnits="userSpaceOnUse">
<stop stop-color="#FF8E00"/>
<stop offset="0.42" stop-color="#FFAF00"/>
<stop offset="0.77" stop-color="#FFC400"/>
<stop offset="1" stop-color="#FFCC00"/>
</linearGradient>
<linearGradient id="paint21_linear_4213_473666" x1="261.277" y1="9.66093" x2="241.819" y2="9.8037" gradientUnits="userSpaceOnUse">
<stop stop-color="#870000" stop-opacity="0"/>
<stop offset="0.56" stop-color="#870000"/>
</linearGradient>
<linearGradient id="paint22_linear_4213_473666" x1="275.157" y1="47.3567" x2="275.365" y2="22.3297" gradientUnits="userSpaceOnUse">
<stop stop-color="#FF8E00"/>
<stop offset="0.42" stop-color="#FFAF00"/>
<stop offset="0.77" stop-color="#FFC400"/>
<stop offset="1" stop-color="#FFCC00"/>
</linearGradient>
<linearGradient id="paint23_linear_4213_473666" x1="277.324" y1="24.1297" x2="255.314" y2="31.2408" gradientUnits="userSpaceOnUse">
<stop stop-color="#870000" stop-opacity="0"/>
<stop offset="0.56" stop-color="#870000"/>
</linearGradient>
<linearGradient id="paint24_linear_4213_473666" x1="292.205" y1="47.4995" x2="292.416" y2="22.4725" gradientUnits="userSpaceOnUse">
<stop stop-color="#FF8E00"/>
<stop offset="0.42" stop-color="#FFAF00"/>
<stop offset="0.77" stop-color="#FFC400"/>
<stop offset="1" stop-color="#FFCC00"/>
</linearGradient>
<linearGradient id="paint25_linear_4213_473666" x1="297.943" y1="9.60606" x2="269.915" y2="9.80924" gradientUnits="userSpaceOnUse">
<stop stop-color="#870000" stop-opacity="0"/>
<stop offset="0.56" stop-color="#870000"/>
</linearGradient>
<linearGradient id="paint26_linear_4213_473666" x1="308.399" y1="47.6339" x2="308.607" y2="22.6097" gradientUnits="userSpaceOnUse">
<stop stop-color="#FF8E00"/>
<stop offset="0.42" stop-color="#FFAF00"/>
<stop offset="0.77" stop-color="#FFC400"/>
<stop offset="1" stop-color="#FFCC00"/>
</linearGradient>
<linearGradient id="paint27_linear_4213_473666" x1="306.219" y1="17.2006" x2="306.359" y2="36.662" gradientUnits="userSpaceOnUse">
<stop stop-color="#870000" stop-opacity="0"/>
<stop offset="0.56" stop-color="#870000"/>
</linearGradient>
<linearGradient id="paint28_linear_4213_473666" x1="26.0921" y1="31.3742" x2="29.0767" y2="26.4814" gradientUnits="userSpaceOnUse">
<stop stop-color="#8D0000" stop-opacity="0"/>
<stop offset="1" stop-color="#8D0000"/>
</linearGradient>
<linearGradient id="paint29_linear_4213_473666" x1="24.6782" y1="34.2242" x2="9.71968" y2="59.7454" gradientUnits="userSpaceOnUse">
<stop stop-color="#8D0000" stop-opacity="0"/>
<stop offset="1" stop-color="#8D0000"/>
</linearGradient>
<radialGradient id="paint30_radial_4213_473666" cx="0" cy="0" r="1" gradientUnits="userSpaceOnUse" gradientTransform="translate(27.5582 29.6581) scale(4.43156 4.43154)">
<stop stop-color="#8D0000" stop-opacity="0.5"/>
<stop offset="0.67" stop-color="#8D0000" stop-opacity="0"/>
</radialGradient>
<linearGradient id="paint31_linear_4213_473666" x1="23.1602" y1="19.2437" x2="24.9801" y2="24.7036" gradientUnits="userSpaceOnUse">
<stop stop-color="#8D0000" stop-opacity="0"/>
<stop offset="1" stop-color="#8D0000"/>
</linearGradient>
<linearGradient id="paint32_linear_4213_473666" x1="22.523" y1="20.0764" x2="23.3003" y2="19.0033" gradientUnits="userSpaceOnUse">
<stop stop-color="#F3B800"/>
<stop offset="1" stop-color="#FAC400"/>
</linearGradient>
<linearGradient id="paint33_linear_4213_473666" x1="23.6676" y1="12.5853" x2="11.7816" y2="18.6615" gradientUnits="userSpaceOnUse">
<stop stop-color="#8D0000" stop-opacity="0"/>
<stop offset="0.77" stop-color="#8D0000"/>
</linearGradient>
<radialGradient id="paint34_radial_4213_473666" cx="0" cy="0" r="1" gradientUnits="userSpaceOnUse" gradientTransform="translate(23.1821 19.016) rotate(23.27) scale(1.79019 0.483351)">
<stop stop-color="white" stop-opacity="0.4"/>
<stop offset="0.25" stop-color="white" stop-opacity="0.39"/>
<stop offset="0.44" stop-color="white" stop-opacity="0.35"/>
<stop offset="0.61" stop-color="white" stop-opacity="0.29"/>
<stop offset="0.77" stop-color="white" stop-opacity="0.19"/>
<stop offset="0.92" stop-color="white" stop-opacity="0.08"/>
<stop offset="1" stop-color="white" stop-opacity="0"/>
</radialGradient>
<radialGradient id="paint35_radial_4213_473666" cx="0" cy="0" r="1" gradientUnits="userSpaceOnUse" gradientTransform="translate(22.8088 20.1149) rotate(30.13) scale(1.79568 0.646445)">
<stop stop-color="#D17B00" stop-opacity="0.4"/>
<stop offset="0.66" stop-color="#D17C00" stop-opacity="0.14"/>
<stop offset="1" stop-color="#D27E00" stop-opacity="0"/>
</radialGradient>
<linearGradient id="paint36_linear_4213_473666" x1="16.9154" y1="22.5863" x2="17.2407" y2="19.793" gradientUnits="userSpaceOnUse">
<stop stop-color="#8D0000" stop-opacity="0"/>
<stop offset="0.16" stop-color="#8D0000" stop-opacity="0.22"/>
<stop offset="0.43" stop-color="#8D0000" stop-opacity="0.55"/>
<stop offset="0.67" stop-color="#8D0000" stop-opacity="0.8"/>
<stop offset="0.87" stop-color="#8D0000" stop-opacity="0.95"/>
<stop offset="1" stop-color="#8D0000"/>
</linearGradient>
<linearGradient id="paint37_linear_4213_473666" x1="24.6781" y1="34.2242" x2="9.71956" y2="59.7454" gradientUnits="userSpaceOnUse">
<stop stop-color="#8D0000" stop-opacity="0"/>
<stop offset="1" stop-color="#8D0000"/>
</linearGradient>
<radialGradient id="paint38_radial_4213_473666" cx="0" cy="0" r="1" gradientUnits="userSpaceOnUse" gradientTransform="translate(24.2005 34.8859) scale(2.98456 2.98457)">
<stop stop-color="white" stop-opacity="0.5"/>
<stop offset="0.82" stop-color="white" stop-opacity="0"/>
</radialGradient>
<linearGradient id="paint39_linear_4213_473666" x1="32.8906" y1="19.7242" x2="12.0178" y2="55.3413" gradientUnits="userSpaceOnUse">
<stop stop-color="#8D0000" stop-opacity="0"/>
<stop offset="1" stop-color="#8D0000"/>
</linearGradient>
<radialGradient id="paint40_radial_4213_473666" cx="0" cy="0" r="1" gradientUnits="userSpaceOnUse" gradientTransform="translate(32.8713 21.0004) scale(4.17839)">
<stop stop-color="white" stop-opacity="0.5"/>
<stop offset="0.82" stop-color="white" stop-opacity="0"/>
</radialGradient>
<linearGradient id="paint41_linear_4213_473666" x1="30.0761" y1="7.64027" x2="17.0698" y2="29.8364" gradientUnits="userSpaceOnUse">
<stop stop-color="#8D0000" stop-opacity="0"/>
<stop offset="1" stop-color="#8D0000"/>
</linearGradient>
<radialGradient id="paint42_radial_4213_473666" cx="0" cy="0" r="1" gradientUnits="userSpaceOnUse" gradientTransform="translate(29.7373 8.51889) scale(2.60236)">
<stop stop-color="white" stop-opacity="0.5"/>
<stop offset="0.82" stop-color="white" stop-opacity="0"/>
</radialGradient>
<linearGradient id="paint43_linear_4213_473666" x1="22.0176" y1="1.56706" x2="10.98" y2="20.397" gradientUnits="userSpaceOnUse">
<stop stop-color="#8D0000" stop-opacity="0"/>
<stop offset="1" stop-color="#8D0000"/>
</linearGradient>
<radialGradient id="paint44_radial_4213_473666" cx="0" cy="0" r="1" gradientUnits="userSpaceOnUse" gradientTransform="translate(23.0242 2.48686) scale(2.21413 2.21412)">
<stop stop-color="white" stop-opacity="0.5"/>
<stop offset="0.82" stop-color="white" stop-opacity="0"/>
</radialGradient>
<linearGradient id="paint45_linear_4213_473666" x1="18.4949" y1="25.0205" x2="7.46547" y2="43.8368" gradientUnits="userSpaceOnUse">
<stop stop-color="#8D0000" stop-opacity="0"/>
<stop offset="1" stop-color="#8D0000"/>
</linearGradient>
<radialGradient id="paint46_radial_4213_473666" cx="0" cy="0" r="1" gradientUnits="userSpaceOnUse" gradientTransform="translate(18.5927 25.75) scale(2.20663)">
<stop stop-color="white" stop-opacity="0.5"/>
<stop offset="0.82" stop-color="white" stop-opacity="0"/>
</radialGradient>
<linearGradient id="paint47_linear_4213_473666" x1="18.2338" y1="14.3894" x2="4.99685" y2="30.5038" gradientUnits="userSpaceOnUse">
<stop stop-color="#8D0000" stop-opacity="0"/>
<stop offset="0.17" stop-color="#8D0000" stop-opacity="0.18"/>
<stop offset="0.74" stop-color="#8D0000" stop-opacity="0.77"/>
<stop offset="1" stop-color="#8D0000"/>
</linearGradient>
<radialGradient id="paint48_radial_4213_473666" cx="0" cy="0" r="1" gradientUnits="userSpaceOnUse" gradientTransform="translate(17.6182 13.5818) scale(3.44573 3.44573)">
<stop stop-color="white" stop-opacity="0.5"/>
<stop offset="0.82" stop-color="white" stop-opacity="0"/>
</radialGradient>
<linearGradient id="paint49_linear_4213_473666" x1="23.9752" y1="12.5085" x2="10.137" y2="19.5841" gradientUnits="userSpaceOnUse">
<stop stop-color="#E29A00"/>
<stop offset="0.03" stop-color="#E8A500"/>
<stop offset="0.09" stop-color="#F2B600"/>
<stop offset="0.16" stop-color="#F9C300"/>
<stop offset="0.27" stop-color="#FCCA00"/>
<stop offset="0.53" stop-color="#FECC00"/>
<stop offset="1" stop-color="#8D0000"/>
</linearGradient>
<radialGradient id="paint50_radial_4213_473666" cx="0" cy="0" r="1" gradientUnits="userSpaceOnUse" gradientTransform="translate(24.1197 21.1479) rotate(71.39) scale(2.95162 6.87727)">
<stop stop-color="#8D0000"/>
<stop offset="0.42" stop-color="#8D0000" stop-opacity="0.51"/>
<stop offset="0.77" stop-color="#8D0000" stop-opacity="0.14"/>
<stop offset="0.94" stop-color="#8D0000" stop-opacity="0"/>
</radialGradient>
<linearGradient id="paint51_linear_4213_473666" x1="23.3436" y1="6.29488" x2="25.2958" y2="7.20096" gradientUnits="userSpaceOnUse">
<stop stop-color="#EEAF00"/>
<stop offset="0.77" stop-color="#FECC00"/>
</linearGradient>
<radialGradient id="paint52_radial_4213_473666" cx="0" cy="0" r="1" gradientUnits="userSpaceOnUse" gradientTransform="translate(25.8477 9.95763) scale(3.47055)">
<stop stop-color="#8D0000"/>
<stop offset="1" stop-color="#8D0000" stop-opacity="0"/>
</radialGradient>
<radialGradient id="paint53_radial_4213_473666" cx="0" cy="0" r="1" gradientUnits="userSpaceOnUse" gradientTransform="translate(24.5735 6.51012) rotate(35.96) scale(1.19712 0.442935)">
<stop stop-color="white" stop-opacity="0.5"/>
<stop offset="1" stop-color="white" stop-opacity="0"/>
</radialGradient>
<radialGradient id="paint54_radial_4213_473666" cx="0" cy="0" r="1" gradientUnits="userSpaceOnUse" gradientTransform="translate(23.704 13.142) rotate(149.87) scale(1.65015 0.594057)">
<stop stop-color="#D17B00" stop-opacity="0.4"/>
<stop offset="0.66" stop-color="#D17C00" stop-opacity="0.14"/>
<stop offset="1" stop-color="#D27E00" stop-opacity="0"/>
</radialGradient>
<radialGradient id="paint55_radial_4213_473666" cx="0" cy="0" r="1" gradientUnits="userSpaceOnUse" gradientTransform="translate(23.3742 12.2851) rotate(154.54) scale(1.61721 0.194065)">
<stop stop-color="white" stop-opacity="0.3"/>
<stop offset="0.83" stop-color="white" stop-opacity="0.05"/>
<stop offset="1" stop-color="white" stop-opacity="0"/>
</radialGradient>
</defs>
</svg>
