<?xml version="1.0" encoding="UTF-8" standalone="no"?>
<svg width="16px" height="16px" viewBox="0 0 16 16" version="1.1" xmlns="http://www.w3.org/2000/svg" xmlns:xlink="http://www.w3.org/1999/xlink">
  <path fill="#000000" d="M14,12.2680424 C13.9449516,12.2667888 13.8904275,12.2638639 13.8350645,12.2638639 C11.1625432,12.2638639 8.84201713,13.7758682 7.66828034,15.9958215 C7.72322389,15.997075 7.77774802,16 7.83300613,16 C10.5055274,16 12.8263681,14.4879957 14,12.2680424 Z M7.66337317,15.995717 C7.01034184,12.863902 4.28644204,10.5005204 1,10.4214416 C1.65282162,13.5535699 4.37682628,15.9166381 7.66337317,15.995717 Z M11.0362674,5.21827261 C10.1165921,4.84147286 9.08723942,5.16301144 8.5280525,5.93635454 L7.73346814,5.5120239 C7.73399241,5.51066588 7.73462153,5.50941232 7.7351458,5.50805429 C7.90459003,5.08894683 7.90207353,4.64246995 7.76093991,4.24780694 L8.58834361,3.85189037 C8.72853354,4.04911741 8.92282819,4.21072241 9.16241981,4.30891807 C9.83788992,4.58574628 10.6083578,4.25888007 10.8832853,3.57892732 C11.1582127,2.89907903 10.8334796,2.1235422 10.1581143,1.84681845 C9.67274471,1.64792 9.13924705,1.76188965 8.77487905,2.09345672 L8.2543833,1.69001878 C8.27986285,1.64551734 8.30366473,1.59965787 8.3233773,1.55076897 C8.55625826,0.974861837 8.28122595,0.317891048 7.70914199,0.0833705493 C7.13695317,-0.151045486 6.4842364,0.12578272 6.25135544,0.701794316 C6.01847449,1.27780591 6.29350679,1.9347767 6.86569561,2.16919274 C7.27305379,2.33612537 7.72057108,2.24283948 8.02894699,1.96789162 L8.52553601,2.40099718 C8.49271667,2.45688514 8.46230898,2.51475791 8.43724885,2.57670475 C8.3181346,2.87139621 8.31194821,3.18384646 8.39782371,3.46610677 L7.58373648,3.88740796 C7.39562823,3.59386559 7.11954739,3.35328621 6.77373856,3.21152928 C5.87828455,2.84465356 4.85690077,3.27786358 4.49232307,4.1792789 C4.12785022,5.08069422 4.5582763,6.10892819 5.45373031,6.47580391 C5.63030461,6.54809264 5.81159735,6.58893786 5.9919464,6.60157794 L6.03766279,7.09610802 C5.66752781,7.15815933 5.33671313,7.40521544 5.18488439,7.78076163 C4.95221315,8.35614645 5.22693089,9.01259492 5.79870029,9.24680203 C6.37036484,9.4811136 7.02245249,9.20449432 7.25512374,8.62900504 C7.48779498,8.05351576 7.21297239,7.39706729 6.64130784,7.16286018 C6.54001878,7.12138818 6.43631807,7.0967348 6.33272222,7.08607953 L6.34698238,6.58987803 C6.80760644,6.52709548 7.23362865,6.28129293 7.51778326,5.89676288 L8.28877545,6.36361014 C8.28531526,6.37186276 8.28143566,6.37990645 8.27808033,6.38836799 C7.90354149,7.31443668 8.22334649,8.35081881 8.99213675,8.91366801 L8.52543115,9.80181646 C7.75076906,9.48800819 6.8691558,9.86334545 6.55396437,10.642643 C6.23814382,11.4238208 6.61110986,12.3147898 7.38713505,12.6327766 C8.16316024,12.9507634 9.04833855,12.5753217 9.36415909,11.7941438 C9.62786715,11.1419784 9.41123859,10.4134501 8.88088655,10.0055202 L9.40232599,9.14808404 C9.41501333,9.15362061 9.42749097,9.15957503 9.44038802,9.1647982 C10.5230066,9.60845457 11.7578733,9.08457025 12.1985751,7.99480729 C12.6392769,6.90493987 12.118886,5.66192899 11.0362674,5.21827261 Z"></path>
</svg>
