<svg xmlns="http://www.w3.org/2000/svg" width="256" height="256" style="background:#1a2422" viewBox="0 0 256 256">
  <g fill="none" fill-rule="evenodd">
    <path fill="#44AF6D" d="M203.976076 181.805405C203.285955 181.789587 202.602406 181.752678 201.908342 181.752678 168.403955 181.752678 139.312398 200.832042 124.597705 228.844723 125.286511 228.860542 125.97006 228.897451 126.66281 228.897451 160.167197 228.897451 189.262697 209.818087 203.976076 181.805405M124.536185 228.843405C116.349379 189.324314 82.200879 159.501769 41 158.503905 49.1841774 198.026951 83.3339919 227.845542 124.536185 228.843405"/>
    <path fill="#F9C623" d="M166.820883,92.8472461 C155.291262,88.0925643 142.386657,92.1499279 135.376343,101.908428 L125.41494,96.5539734 C125.421512,96.536837 125.429399,96.5210188 125.435972,96.5038825 C127.56023,91.215337 127.528681,85.5814279 125.759343,80.601337 L136.13219,75.6054279 C137.889698,78.0941552 140.325496,80.1333825 143.329165,81.3724734 C151.797278,84.8656552 161.456343,80.7410643 164.903004,72.1610188 C168.349665,63.5822916 164.278609,53.7961097 155.81181,50.3042461 C149.726915,47.7944279 143.038657,49.2325643 138.470714,53.4164734 L131.945456,48.3256552 C132.264883,47.7641097 132.563278,47.1854279 132.810407,46.5685188 C135.729948,39.3013825 132.281972,31.011337 125.109972,28.0520188 C117.936657,25.0940188 109.753794,28.5872007 106.834254,35.8556552 C103.914714,43.1241097 107.36269,51.4141552 114.536004,54.3721552 C119.642899,56.4786097 125.253254,55.3014734 129.119246,51.8320188 L135.344794,57.2972007 C134.933351,58.0024279 134.552141,58.7327007 134.237972,59.5143825 C132.744681,63.2329734 132.667125,67.1756552 133.743714,70.7373825 L123.53781,76.0536097 C121.179569,72.3495188 117.718448,69.3137461 113.383173,67.5249734 C102.157206,62.8955188 89.352504,68.3620188 84.7819315,79.7366097 C80.2126734,91.1112007 85.6087621,104.086064 96.8347298,108.715519 C99.048375,109.627701 101.321173,110.14311 103.582141,110.30261 L104.15527,116.542882 C99.5150282,117.325882 95.3677298,120.443382 93.4643105,125.182246 C90.5473992,132.442792 93.9914315,140.726246 101.159488,143.68161 C108.32623,146.638292 116.501206,143.147746 119.418117,135.885882 C122.335028,128.624019 118.889681,120.340564 111.72294,117.385201 C110.453117,116.861882 109.15306,116.550792 107.854319,116.416337 L108.033093,110.154973 C113.807762,109.362746 119.148641,106.261064 122.71098,101.408837 L132.376617,107.299792 C132.333238,107.403928 132.284601,107.505428 132.242536,107.612201 C127.547085,119.297882 131.556359,132.375564 141.194391,139.477928 L135.34348,150.68511 C125.631835,146.725292 114.579383,151.461519 110.627948,161.295155 C106.668625,171.152519 111.344359,182.395292 121.073093,186.407837 C130.801827,190.420382 141.898972,185.682837 145.858294,175.825473 C149.164302,167.596064 146.448512,158.403064 139.79969,153.255564 L146.336778,142.435928 C146.495835,142.505792 146.652262,142.580928 146.813948,142.646837 C160.386327,148.245155 175.867383,141.634473 181.392294,127.883201 C186.917206,114.13061 180.393262,98.4455643 166.820883,92.8472461"/>
  </g>
</svg>
